<?xml version="1.0" encoding="utf-8"?>
<!-- Generator: Adobe Illustrator 24.1.2, SVG Export Plug-In . SVG Version: 6.00 Build 0)  -->
<svg version="1.1" id="Layer_1" xmlns="http://www.w3.org/2000/svg" xmlns:xlink="http://www.w3.org/1999/xlink" x="0px" y="0px"
	 viewBox="0 0 674 826" style="enable-background:new 0 0 674 826;" xml:space="preserve">
<style type="text/css">
	.st0{fill:#FFFFFF;}
	.st1{fill:#F24701;}
</style>
<path d="M327.5,276.4l-8.2-16.6c-0.9-2.1-2.1-4-3.7-5.5c-2.2-1.8-5.1-2.4-7.6-3.8c-7-4.1-7.9-13.7-8-21.8
	c-0.1-5.3,0.6-11.9,5.5-13.9c1.6-0.5,3.3-0.7,4.9-0.6l310.1-0.9c2.1-0.2,4.2,0.1,6.1,0.9c5.9,2.7,5.6,11,4.4,17.4l-2,11.4
	c-0.4,2-0.9,4.2-2.5,5.5c-1.9,1.5-4.7,1.2-7.1,1.5c-8.3,1-13.3,9.4-17.1,16.9c-12.1,23.7-22.6,48.1-35,71.5
	c-9.7,18.4-24.3,30.1-45.5,31.2c-14.9,0.8-30.1-0.4-45.1-0.4c-17.9,0-35.9,1.4-53.8,1.3c-17-0.1-23.6-0.8-40.4-5.3
	c-12.3-3.3-17.1-8.2-23.6-19.4c-7.4-12.6-12.5-24.6-24-46.7c0,0,17.3-9.5,18.3-16.2s0-12.8-10.3-9.5s-12.4,3.9-12.4,3.9"/>
<path d="M329.3,276.2c-1.7-3.6-3.3-7.2-5-10.8c-1.3-3.1-2.9-6.2-4.6-9.2c-1.7-2.7-4.1-4-7-5.2c-2.6-1.1-5-2.3-6.6-4.7
	c-3.1-4.4-3.6-10.2-3.7-15.4c-0.1-4.4-0.5-11.2,3.7-13.9c1.5-0.8,3.1-1.1,4.8-1h5.9H328l23.2-0.1l46.2-0.2l92.9-0.3l92.6-0.3
	L606,215h11.6c3.2,0,7.4-0.7,10.3,1.1c4.2,2.6,3.8,9.2,3.2,13.4c-0.5,3.4-1.3,6.8-1.9,10.1c-0.5,2.6-0.6,7.2-3.5,8.4
	c-2.6,1.1-5.6,0.5-8.3,1.4c-2.4,0.9-4.6,2.2-6.5,4c-4.1,3.8-6.8,8.9-9.3,13.8c-6.8,13.3-13,26.9-19.5,40.5
	c-3.2,6.8-6.5,13.5-9.8,20.2c-2.9,5.8-5.8,11.7-9.4,17.2c-5.8,8.7-13.8,16-23.5,19.8c-12.1,4.8-25.5,3.9-38.3,3.6
	c-7.5-0.2-15-0.5-22.5-0.5s-15.3,0.3-23,0.5c-14.5,0.5-29.1,1.2-43.6,0.5c-5.4-0.3-10.7-0.9-15.9-2c-5.9-1.2-12-2.5-17.7-4.8
	c-4.2-1.7-7.8-4.3-10.8-7.7c-3.1-3.9-5.9-8-8.1-12.4c-4.8-8.5-9-17.3-13.3-26c-2.9-5.8-5.8-11.6-8.8-17.4l-0.5,2.1
	c2.5-1.4,5-3,7.4-4.6c3.8-2.6,7.9-5.6,10.3-9.5c2-3.2,2.3-8.6,0.5-11.9c-2.7-5.2-9.5-2.9-13.8-1.5c-3.3,1.1-6.7,2.3-10.1,3.2
	c-1.8,0.4-1,3.1,0.7,2.7s3.7-1.1,5.6-1.7c3-0.9,5.9-2.1,9-2.8c1.8-0.4,4.2-0.7,5.6,0.8c1.1,1.2,1.1,3.2,1.1,4.7
	c0.1,1.7-0.3,3.5-1.1,5c-2.1,3.5-5.8,6-9.1,8.3c-2.4,1.7-5,3.3-7.6,4.7c-0.7,0.4-0.9,1.3-0.5,2.1c5.6,10.8,10.9,21.8,16.4,32.7
	c2.1,4.2,4.3,8.3,6.6,12.4c2.4,4.5,5.3,8.7,8.7,12.5c3.2,3.3,7.2,5.9,11.5,7.5c5.9,2.1,12,3.7,18.2,4.8c12.6,2.5,25.6,2.4,38.4,2.2
	c15.7-0.3,31.4-1.3,47.2-1.2c7.7,0.1,15.5,0.4,23.2,0.5c7.3,0.1,14.8,0.3,22.1-0.6c10.7-1.2,20.8-5.8,28.8-13
	c9.2-8.4,14.6-19.6,20.1-30.6c6.9-13.9,13.4-28,20.1-42c3.2-6.7,6.4-13.5,10-20.1c2.6-4.8,5.8-10.1,11-12.6c2.7-1.3,5.5-1,8.4-1.6
	c2.7-0.5,4.9-2.6,5.6-5.3c0.9-3.5,1.6-7,2.1-10.6c0.7-2.9,1.1-5.9,1.3-8.9c0.2-4.7-0.6-10.1-4.9-12.8c-2.9-1.8-6.5-1.6-9.7-1.5
	h-11.9l-95.5,0.3l-95.6,0.3l-95.9,0.3c-3.8,0-7.7-0.2-11.5,0.1c-2.6,0.1-5.1,1.3-6.8,3.4c-3.2,4.1-3,10-2.8,15
	c0.2,5.3,0.9,11,3.8,15.6c1.4,2.3,3.4,4.2,5.9,5.4c3,1.5,6.2,2.2,8.1,5.1c1.8,2.9,3.3,6,4.7,9.1c1.8,3.5,3.6,7,5.5,10.5
	c0.6,1.2,2.3,0.1,1.8-1L329.3,276.2z"/>
<path class="st0" d="M151.5,585.2c-73,60.2-89.7,100-145.8,168.8c-2.4,2.9-4.1,6.7-3.4,10.4c0.5,2.8,2.5,5,4.4,7
	c12.7,13,27.8,23.3,44.6,30.3c1.1,0.5,10-0.5,11.5-4.7c1.3-3.5-3.1-7-7.2-14c0,0-4.6-7.8-6.8-20.1c-2.9-16,26-34.9,53-54.3
	c30.3-21.7,60.4-27.9,83.5-52.8c18.1-19.5,29.7-38,36.3-49.5c0.7-1.3,1.3-2.7,2-4"/>
<path d="M162.8,582.7c-1.6-2.1-25.1,10.6-45.1,29.5c-3.5,3.3-6.2,6.2-8.1,8.3c-1.8,1.9-4.1,4.4-6.5,7.4c-2.1,2.5-2,2.6-4.5,5.6
	c-2.3,2.8-3,3.5-6.4,7.6c-1.4,1.7-1.5,1.8-2.6,3.1c-2,2.4-3.5,4-8.4,9.8c0,0-5.7,6.7-13.2,15.8c-14.8,18-25.8,34.5-44.4,59.2
	c-5.9,7.8-8.9,11.6-9.9,13c-3.2,4.1-6.6,8-9.7,12.2c-2,2.5-3.1,5.7-3.2,8.9c0.1,3.5,2,6.3,4.3,8.8c4.8,5.1,10.1,9.8,15.7,14
	c5.6,4.3,11.6,8.1,17.8,11.5c3.1,1.6,6.2,3.1,9.3,4.5c5.7,2.5,7.6,2.1,8.6,1.9c3.1-0.7,6.2-3.5,7.2-6.7c2.7-8.5-11-14.1-12.3-29.4
	c-0.5-5.9,1.2-10.6,1.8-12.2c2-5.2,5.2-8.6,9.1-12.3c4.5-4.3,9.1-8.2,18.5-15.5c4.6-3.5,6.9-5.3,10.3-7.8c6.3-4.5,6.9-4.5,14.5-9.9
	c6.7-4.7,7.4-5.5,12.3-8.6c2.5-1.6,2.4-1.5,8.5-5.3c4.5-2.8,5.8-3.7,9-5.6c3.7-2.2,5-2.9,7.6-4.5c5.5-3.2,9-5.7,13-8.4
	c11-7.4,15-9.5,19.4-12.5c15.5-10.6,25.6-24.7,34.3-36.9c5.1-7.2,10.8-16.2,18-21.8c3.5-2.7,5.1-4.2,8.3-7.2c3.4-3.2,6.7-6.3,6.3-7
	c-0.6-0.9-7.8,2.7-12.3,5.5c-20.1,12.6-18.4,31.5-39,51.5c-6.1,5.9-13.2,11.1-13.3,11.1c-5.9,4.3-8.9,5.7-17.3,10.6
	c-12.7,7.5-10.8,7.2-27.8,17.5c-9.4,5.7-11.9,7-18.1,11.3c-5.8,4-5.9,4.4-12.6,9c-7.2,4.8-9.2,5.8-14.2,9.7c-2.6,2.1-2,1.7-8.6,7.2
	c-2.5,2.1-5.9,4.9-10.7,8.8c0,0-4.1,3.3-10.5,9.5c-4.9,4.8-5.8,6.1-6.5,7.3c-3.3,5.8-2.8,11.8-2.5,14.3c0.7,7.5,4.3,13.3,6.8,17.5
	c4.2,6.8,7.7,9.4,6.7,13c-0.7,2.5-3.2,4.1-5.1,4.7c-1.5,0.5-3.4,0.8-8.5-1.5c-3.1-1.4-6.2-2.9-9.3-4.6c-6.1-3.3-11.9-7.1-17.3-11.3
	c-5.7-4.2-11-9-15.8-14.3c-2.4-2.8-3.4-5.9-2.2-9.5c1-2.8,3-5.1,4.9-7.4c3.2-3.9,6.1-8.2,9.4-12c10.3-11.9,18.4-26.2,35-48.2
	c5-6.6,9.2-12,9.3-12c1.9-2.4,2-2.5,8.1-10.1c5.6-7,5.7-7.1,8.1-10.1c4-4.9,5.9-7.3,8.6-10.5c2.3-2.7,2.5-2.8,8.3-9.5
	c0.9-1,3.8-4.4,6.6-7.7c9.5-11,9.4-11.2,12.1-14.2c4.1-4.4,7.7-8.2,12.9-11.8c10.5-7.1,15.5-4.7,25.1-11.8
	C158.2,590,163.6,583.8,162.8,582.7z"/>
<path d="M59.8,787.3c-5.7-6.9-9.6-19.5-9.5-26.9c0.1-8.8,11.1-18.1,33-36.5c6.3-5.3,11.6-9.4,15.1-12.1c-4.7-3.5-9.6-7.3-14.5-11.4
	c-8.5-7-16.1-14.1-22.9-20.9C41.1,707.4,22.5,733.4,5.6,754c-2.4,2.9-4.1,6.7-3.4,10.4c0.5,2.8,2.5,5,4.4,7
	c12.7,13,27.8,23.3,44.6,30.3c2.3,0.9,9.8-0.4,11.6-4.7C64.5,793,60.4,788.1,59.8,787.3z"/>
<g>
	<path class="st1" d="M65.4,719.9c2.4,2.5,5,4.8,7.6,7c1.4,1.1,2.8,2.2,4.2,3.2c0.8,0.5,1.6,1.4,2.6,1.1c0.9-0.2,1.4-1.1,1.2-2
		c-0.1-0.3-0.2-0.5-0.4-0.7c-0.5-0.5-1.2-0.6-1.8-0.2c-0.5,0.3-0.8,1-0.6,1.6c0.1,0.5,0.5,0.8,0.9,1l-1-1.4c0,0.2,0,0.4,0.1,0.5
		l0.1-1.2v0.1l0.9-0.7h-0.1h0.8c0.1,0-0.1,0-0.2-0.1s-0.3-0.2-0.4-0.2l-0.9-0.6l-1.9-1c-1.1-0.8-2.3-1.6-3.4-2.4
		c-2.2-1.7-4.3-3.4-6.3-5.3c-0.4-0.4-1-0.4-1.4,0C65,718.9,65,719.5,65.4,719.9L65.4,719.9L65.4,719.9z"/>
	<path class="st1" d="M53.1,732.4c3.8,3.6,8,6.7,12.5,9.3c0.6,0.3,1.3,0.1,1.7-0.4c0.3-0.6,0.1-1.3-0.4-1.7
		c-4.4-2.4-8.5-5.3-12.3-8.5C53.5,730.2,52.1,731.5,53.1,732.4z"/>
	<path class="st1" d="M42.9,747.6c1.5,1.5,3.2,2.8,4.9,4.1c0.8,0.6,1.6,1.2,2.5,1.8s1.8,1.2,2.7,1.7c0.6,0.3,1.3,0,1.5-0.6
		c0.2-0.5,0.1-1.1-0.4-1.4c-0.8-0.6-1.7-1.1-2.6-1.6s-1.7-1.1-2.5-1.7c-1.6-1.1-3.3-2.3-4.8-3.6c-0.4-0.3-0.9-0.3-1.3,0
		C42.5,746.7,42.5,747.2,42.9,747.6L42.9,747.6z"/>
</g>
<path class="st0" d="M114.4,607.3c-9.2,91.4,0,112.9-5.4,201.6c-0.2,3.8,0.6,7.9,3.3,10.5c2,2,4.9,2.6,7.7,3.1
	c17.9,3.2,36.2,2.7,53.9-1.5c4.7-1.1,7.7-5.8,6.6-10.6c-0.4-1.6-1.2-3-2.3-4.2c-6.3-6.3-11.6-2.8-18.9-7.5
	c-17.6-16.5-14.2-42.2-13.5-45c20.8-83,47.5-72.5,53.4-180.7"/>
<path d="M113.4,607c-0.1,0.4-0.2,0.9-0.2,1.3c-0.5,1.8-1.2,4.4-1.8,7.6c-1.6,8.5-1.5,14.5-1.3,25.8c0.3,15.3,0.4,23,0.3,27
	c-0.1,6.8-0.3,8.1-0.5,17.8c-0.2,9.2-0.2,15.8-0.2,19.5c0,14.9-0.2,38.5-0.8,60.5c-0.3,10.6-0.4,21.2-0.8,31.8
	c-0.2,5-1.2,10.5-0.2,15.4c0.5,2.8,1.9,5.3,4.1,7.2c2.6,2,5.9,2.6,9,3.1c14.8,2.5,30,2.4,44.8-0.1c10.2-1.8,13.6-3.7,14.9-6.7
	c1.5-3.3,0.4-7.8-1.8-10.7c-3.9-5.1-9.3-2.9-16.8-7.4c-5.8-3.5-8.6-8.6-10.7-12.4c-1.6-2.8-5.4-10.4-5.3-23c0-2.8,0.3-5,0.4-5.8
	c0,0,0-0.1,0-0.3c1.7-12.9,4.4-21.5,4.4-21.5c1.1-3.4,3-7.8,6.8-16.4c1.2-2.8,1.9-4.1,5.1-11c0,0,2.8-6.1,7.5-16.2
	c5.2-11.3,8.6-18.6,12.3-27.8c4.5-11.2,7.8-19.5,10.5-31c1.3-5.4,0.8-4.9,2.8-13.6c2.9-13.2,4.2-16.1,5.8-25.1
	c2.9-17.5,0.4-20.8-1.3-22c-0.5-0.3-1.5-1-2.3-0.7c-3.3,1.2,0.5,14.7-1.2,31.7c-0.5,4.9-1.3,10.3-1.3,10.3s-0.8,5.2-1.8,10.2
	c-2.6,12.8-7.9,27.1-9.8,32.3c-3.6,9.7-6.9,16.9-10.7,25.3c-3.5,7.7-6.5,14-8.5,18.2c-7,14.6-10.6,21-13.7,31.7
	c-0.8,2.9-1.6,6.1-1.9,7.4c-1.9,7.9-3.9,15.9-4,19.3c-0.5,13.4,3.2,37.4,17,43.2c5.4,2.3,13.1,2.1,16.3,7.8c1,1.8,0.9,3,0.9,3.4
	c-0.2,1.8-1.5,6.3-13.6,8.3c-14.9,2.6-30.2,2.5-45.1-0.1c-3.4-0.6-6.9-1.3-8.8-4.5c-1.6-2.6-1.7-5.7-1.5-8.7
	c0.6-10,0.9-19.9,1.1-29.9c0.5-24.6-1.4-34.8,0.2-68.3c0.1-2.3,0.5-9.4,0.6-19c0.1-4.9,0-5.2,0-13.2c0-15.6,0.3-15.7,0.2-24.3
	c-0.1-9.9-0.5-18.2-0.5-18.2c-0.3-6.6-0.5-9.1-0.1-12.9c0.6-6.4,2.2-11.4,3.4-14.6C114.7,607.4,114,607.2,113.4,607z"/>
<path d="M170,802.7c-3.9-1.3-12.4-4.8-18.2-13.3c-2.5-3.7-5.4-9.7-5.7-22.2c-0.4-20.4,6.5-37.8,12.5-49.1
	c-5.2,0.9-11.1,1.5-17.5,1.6c-12.2,0.2-22.7-1.5-30.8-3.6c0.2,34.2,0.2,66.2-1.4,92.8c-0.2,3.8,0.6,7.9,3.3,10.5
	c2,2,4.9,2.6,7.7,3.1c17.9,3.2,36.2,2.7,53.9-1.5c2.6-0.6,7.4-5.9,6.6-10.6C179.8,806.7,175.6,803.8,170,802.7z"/>
<g>
	<path class="st1" d="M132.7,745.1c3.7,0.7,7.3,1.1,11,1.3c1.8,0.1,3.7,0.1,5.5,0.1c0.8,0.1,1.6-0.3,2-1c0.4-0.8,0.1-1.8-0.7-2.2
		c-0.1-0.1-0.2-0.1-0.4-0.1c-0.7-0.2-1.3,0.1-1.7,0.7l0,0c-0.3,0.6-0.2,1.2,0.2,1.7c0.3,0.3,0.8,0.5,1.3,0.3l-1.4-0.4
		c0.1,0.1,0.3,0.3,0.4,0.3l-0.7-0.9v0.1l0.4-1.5c0.5-0.2,0.5-0.3,0-0.2h-0.3l-1.2,0.1c-0.7,0-1.3,0.1-2,0.1c-1.4,0-2.8,0-4.2,0
		c-2.8-0.1-5.5-0.3-8.3-0.6C131.8,742.9,131.5,744.8,132.7,745.1L132.7,745.1z"/>
	<path class="st1" d="M132.3,762.2c5.1,0.7,10.2,0.8,15.3,0.2c0.7,0,1.2-0.5,1.2-1.2s-0.5-1.2-1.2-1.2c-5.1,0.6-10.2,0.7-15.3,0.3
		C131,760.2,131.1,762.1,132.3,762.2L132.3,762.2z"/>
	<path class="st1" d="M136.6,778.5c2.1,0.3,4.2,0.4,6.3,0.5s4.3,0,6.4-0.3c1.3-0.2,1-2.3-0.3-2.3c-2,0-4.1,0.3-6.2,0.3
		s-4.1,0-6.2-0.1c-0.5,0-0.9,0.4-0.9,0.9C135.7,778.1,136.1,778.5,136.6,778.5L136.6,778.5z"/>
	<path class="st1" d="M74.8,370.3c-7.2,19.6-10.7,40.4-10.2,61.3c0.5,19.5,4.4,38.6,8.2,57.7l22.5,111c1.6,8,3.3,16.1,7.2,23.2
		c11.9,21.8,41.7,28,65.7,21.5c20-5.4,38.4-17.9,59.1-17.7c11.8,0.1,23.3,4.4,35.1,4.7c15.7,0.3,30.8-6.4,41.1-18.3
		c8.6-10,13.4-23.4,23.8-31.6c11.3-8.9,27.3-10.4,37.8-20.2s12.8-25.7,20.3-38.1c4.4-7.2,10.5-13.1,15.3-19.9s8.5-15.2,6.9-23.5
		c-2.1-11-12.6-18-22.2-23.7c-50.9-30.2-104.3-58.4-162.4-69.4c-2.9-0.7-5.8-0.9-8.7-0.7c-3.1,0.4-6.1,1.6-9,2.6
		c-17.9,5.8-37.5,1.9-51.8-10.3C144.9,380.2,125.3,391.1,74.8,370.3"/>
</g>
<path d="M148,71.9c4.7-2.6,10.1-3.7,15.5-3c5.3,0.7,10.4,2.3,15.2,4.7c7.3,3.5,14.2,8.1,19,14.6c11.3,15,9.6,36.5,19,52.8
	c1.9,3.3,4.2,6.3,5.7,9.8s2,7.6,0.3,10.9c-1.2,2-2.8,3.6-4.7,4.9c-4.5,3.2-10,5.6-15.5,4.7c-2.8-0.5-5.5-1.8-8.3-2.1
	c-3-0.3-6,0.6-9,0.8c-5.6,0.2-11.1-1.5-15.5-4.9s-7.9-7.8-10.4-12.8c-5.6-11.2-6.6-24.2-2.8-36.1c1.1-3.4,2.6-6.8,2.8-10.4
	s-1.5-7.6-5-8.8"/>
<path d="M148.5,72.7c8.4-4.6,18.4-2.9,26.8,0.8c7.8,3.3,15.3,8,20.6,14.8c10.1,12.8,10.1,30.2,15.5,45c1.4,3.8,3.2,7.4,5.3,10.8
	c2.3,3.7,5.1,7.5,5.5,12.1c0.2,2.1-0.3,4.3-1.6,6c-1.4,1.6-3,3-4.8,4.1c-3.6,2.3-7.8,4.1-12.2,3.6c-2.3-0.2-4.5-1.2-6.7-1.8
	c-2.3-0.5-4.6-0.7-6.9-0.3c-2.3,0.4-4.7,0.6-7.1,0.6c-2.2-0.1-4.3-0.6-6.4-1.4c-8.1-3.1-13.9-10.6-17.1-18.4
	c-3.3-8.1-4.3-17.1-2.8-25.7c0.8-4.5,2.7-8.6,3.8-13.1c0.9-3.8,0.9-8-1.5-11.3c-1-1.4-2.4-2.5-4.1-3.1c-2-0.7-2.8,2.4-0.9,3.2
	c3.7,1.4,4.1,6.4,3.4,9.7c-0.6,2.3-1.3,4.6-2.2,6.9c-0.7,2.2-1.3,4.4-1.7,6.6c-1.7,9.1-0.8,18.5,2.6,27.1c3.3,8.3,8.8,16.2,17,20.1
	c4.2,2.1,8.9,2.9,13.5,2.4c2.5-0.3,5-0.9,7.6-0.6s4.6,1.4,7,1.9c4.6,1.1,9.2,0,13.4-2.1c3.7-1.9,8-4.7,9.8-8.6
	c4.1-9.1-4.2-17.3-7.9-24.8c-7.2-15-6.6-32.9-15.8-47.2c-4.7-7.4-11.9-12.8-19.7-16.7c-8.4-4.2-17.9-7.2-27.3-4.8
	c-2.2,0.6-4.3,1.4-6.2,2.6c-0.4,0.3-0.5,1-0.2,1.4C147.5,72.8,148,72.9,148.5,72.7L148.5,72.7z"/>
<path class="st0" d="M189.8,111.7c-2,8.1-2.1,16.5-0.2,24.7c0.6,2.7,1,6.5-1.6,7.4c-0.8,0.2-1.6,0.3-2.4,0.3
	c-3.4,0.6-5.1,4.4-6.3,7.6c-2.6,6.9-6.3,14.4-13.3,16.9s-14.4-0.6-20.5-4.7c-16.6-11.1-28.2-31.2-24.9-50.9
	c1.6-9.2,6.2-17.7,12.2-24.9c4.5-5.3,9.8-10.2,16.4-12.6c11.8-4.3,25.6,0.3,34.5,9.2C189.8,90.8,192.7,103.6,189.8,111.7"/>
<path d="M121.5,113.3c1.6-7.9,5.5-15.1,10.3-21.6c4.6-6.1,10.4-12.1,17.8-14.8c6.7-2.4,14-1.8,20.6,0.7c6.2,2.4,12.5,6.7,15.7,12.6
	c3.4,6.2,4.7,14.2,2.8,21.1c-0.4,1.4,1.6,1.8,2.1,0.6c2.7-6.4,1.5-14.3-1.1-20.5c-2.9-6.9-8.6-11.8-15.2-15.1
	c-6.9-3.4-14.8-4.9-22.4-3.2c-8.1,1.8-14.8,7.4-20,13.6c-6.3,7.5-10.9,16.2-12.3,26C119.6,114,121.3,114.5,121.5,113.3L121.5,113.3z
	"/>
<path d="M188.9,111.4c-1.9,6.6-2.5,13.4-1.6,20.2c0.4,2.8,1.4,5.6,1.3,8.5c0.1,0.8-0.2,1.6-0.9,2.2c-0.6,0.2-1.2,0.3-1.8,0.3
	c-0.8,0.1-1.5,0.2-2.2,0.5c-4.7,2.1-5.8,8.4-7.7,12.6c-2.2,4.7-5.4,9.6-10.4,11.4c-6.8,2.5-13.7-1-19.5-4.2c-1-0.6-2.3,0.9-1.3,1.7
	c5,3.9,11.6,6.9,18,6.1c5.9-0.7,10.4-4.5,13.4-9.3c1.6-2.5,2.9-5.2,3.9-8c0.9-2.4,1.7-5.2,3.6-6.9c1-0.8,2.2-1.2,3.4-1.1
	c1.3-0.1,2.5-0.8,3.3-1.9c1.4-2,1.1-4.8,0.6-7c-1.8-8.1-2-16.5-0.4-24.6c0.1-0.5-0.2-1-0.7-1.2S189,111,188.9,111.4L188.9,111.4z"/>
<path d="M181.9,124c-0.4,0-0.8,0.1-1.1,0.1c-0.2,0.1-0.5,0.2-0.7,0.3c-0.2,0.1-0.4,0.3-0.6,0.4c-0.2,0.2-0.3,0.3-0.5,0.5
	c-0.1,0.2-0.2,0.4-0.3,0.6c0,0.2-0.1,0.4-0.1,0.5s0,0.1,0,0.2c0,0.4,0.1,0.7,0.3,1c0.3,0.4,0.7,0.7,1.2,0.7c0.3,0,0.7-0.1,1-0.3
	c0.2-0.1,0.4-0.2,0.6-0.4c0.4-0.4,0.7-1,0.7-1.6c0-0.4-0.2-0.7-0.4-1c-0.1-0.1-0.3-0.2-0.5-0.3c-0.2-0.1-0.4-0.1-0.6-0.1
	c-0.4,0-0.7,0.2-1,0.4c-0.3,0.3-0.4,0.6-0.4,1c0,0.1,0,0.1,0,0.2v-0.4c0,0.1,0,0.1-0.1,0.2l0.1-0.4c0,0.1-0.1,0.1-0.1,0.2l0.2-0.3
	c-0.1,0.1-0.1,0.1-0.2,0.2l0.3-0.2l-0.2,0.1l0.3-0.1l-0.2,0.1l1.6,0.6l-0.1-0.1l0.1,0.3c0-0.1,0-0.1-0.1-0.2v0.4c0-0.1,0-0.2,0-0.3
	v0.4c0-0.2,0.1-0.3,0.1-0.5l-0.1,0.3c0-0.1,0.1-0.2,0.2-0.3l-0.2,0.3c0.1-0.1,0.2-0.3,0.4-0.4l-0.2,0.2c0.3-0.2,0.5-0.4,0.8-0.5
	c0.2-0.1,0.3-0.3,0.4-0.5c0.1-0.2,0.1-0.4,0-0.6c0-0.2-0.1-0.3-0.2-0.4C182.3,124,182.1,123.9,181.9,124L181.9,124z"/>
<path d="M177.8,117.2c-0.1-0.1-0.1-0.1,0.2,0.1c0.1,0.1,0.2,0.1,0.4,0.2l0.3,0.1c0.3,0,0.5,0.1,0.8,0.2c0.5,0.1,0.9,0.2,1.4,0.4
	l0.3,0.1c-0.4-0.1,0,0,0.1,0l0.7,0.3c-0.5-0.2-0.1-0.1,0,0c0.5,0.2,0.9,0.4,1.3,0.7l-0.4-0.3c0.2,0.2,0.4,0.4,0.7,0.5l-0.4-0.3
	l-0.5-0.8v0.1c0.2,0.6,0.7,1.1,1.3,1.3c0.6,0.2,1.3,0,1.8-0.5c0.7-0.7,0.9-1.8,0.4-2.6c-0.4-0.6-1-1-1.7-1.2
	c-0.8-0.2-1.6-0.3-2.4-0.4c-0.6,0-1.3,0-1.9,0c-0.3,0-0.7,0-1,0.1h-0.5c-0.2,0-0.4,0.1-0.6,0.2c-0.1,0-0.1,0.1-0.2,0.1
	c-0.1,0.1-0.1,0.1,0,0c-0.5,0.3-0.6,0.9-0.3,1.4c0.1,0.1,0.2,0.3,0.3,0.3L177.8,117.2z"/>
<path d="M152.4,115.9h0.1C152.6,115.9,152.5,115.9,152.4,115.9l0.2,0.1c0.1,0-0.1-0.1,0,0l0.1,0.1c0,0,0.1,0.1,0,0s0,0.1,0.1,0.2
	s-0.1-0.2,0-0.1v0.1v0.1c0-0.1,0-0.1,0-0.1v0.1v0.3v0.1c0,0,0-0.2,0,0c-0.1,0.4-0.2,0.7-0.3,1.1c0,0.1,0.1-0.2,0,0l-0.1,0.1
	c0,0.1-0.1,0.1-0.1,0.2l-0.1,0.1c0-0.1,0.1-0.1,0,0s-0.1,0.1-0.2,0.2l1.6,0.2c-0.1-0.2,0.1,0.2,0,0.1s0,0.3,0,0.1s0,0.2,0,0.1
	s0.1,0,0,0.1c0,0,0-0.1,0.1-0.1c-0.1,0.1-0.1,0.2-0.1,0.1c-0.2,0.1,0,0,0,0s-0.3,0.1-0.1,0.1c0.3-0.1,0.5-0.3,0.6-0.5
	c0.3-0.5,0.1-1.2-0.4-1.5c-0.2-0.1-0.5-0.2-0.8-0.1c-1,0.3-1.5,1.3-1.2,2.2c0,0.1,0.1,0.3,0.2,0.4c0.3,0.5,0.9,0.7,1.4,0.4
	c0.1,0,0.2-0.1,0.2-0.2c0.8-0.8,1.2-2,1.3-3.1c0.1-0.6-0.1-1.2-0.4-1.8c-0.3-0.5-0.8-0.9-1.4-1c-0.2-0.1-0.5,0-0.7,0.1
	c-0.4,0.3-0.6,0.8-0.3,1.3C152,115.8,152.2,115.9,152.4,115.9L152.4,115.9z"/>
<path d="M167.9,149.4l0.4-0.2c0,0,0.3-0.1,0.1-0.1s0,0,0.1,0c0.3-0.1,0.5-0.2,0.8-0.2H169c0.3,0,0.7,0,1,0h-0.3
	c0.4,0.1,0.8,0.2,1.1,0.3c0.6,0.2,1.2-0.2,1.4-0.8c0.2-0.5-0.1-1.1-0.5-1.3c-0.2-0.1-0.4-0.2-0.7-0.3c-0.2-0.1-0.5-0.1-0.8-0.1
	c-0.4-0.1-0.9-0.1-1.3,0c-0.8,0.1-1.6,0.5-2.3,1c-0.4,0.3-0.5,1-0.2,1.4S167.5,149.7,167.9,149.4L167.9,149.4z"/>
<path d="M192.7,97.3c-2,4.3-6.2,7.1-10.4,9.4c-6.9,3.7-14.3,6.3-22,7.9c-0.3-3.6-3-6.5-6.5-7.1c-3.5-0.5-7,1.2-8.8,4.2
	s-1.9,6.8-0.4,9.9c-7.3,5.8-16.1,9.4-25.4,10.3c-0.4,0.1-0.9,0-1.3-0.2c-0.4-0.4-0.7-0.9-0.7-1.5c-1.5-10.7-2-21.9,0.4-32.5
	c2.1-9.3,7-22,17.3-24.8c6.3-1.8,14-3,20.5-1.9c0.5,0.1-10-0.3-9.5-0.4c0.6-0.1,1.2-0.2,1.8-0.4c6.1-2.1,12.7-2.2,18.8-0.3
	c6,1.8,11.2,5.4,16.2,9.1c5.4,3.9,10.7,8,14.4,13.5c0.8,0.9,1.1,2.1,0.9,3.2c-0.7,2.4-4.6,2.2-5.8,4.4"/>
<path d="M191.9,96.9c-2.6,5.2-8.2,8-13.3,10.4c-5.9,2.8-12.2,4.9-18.6,6.2l1.6,1.2c-0.4-5-4.8-8.8-9.8-8.4c-0.9,0.1-1.8,0.3-2.6,0.6
	c-6.3,2.4-8.2,9.6-5.6,15.5l0.2-1.5c-6,4.7-13,7.9-20.5,9.3c-0.9,0.2-1.9,0.3-2.8,0.4c-0.5,0.1-0.9,0.2-1.4,0.1
	c-0.5-0.1-0.4-0.2-0.5-0.7c-0.4-2.1-0.5-4.3-0.8-6.4c-0.4-4.2-0.5-8.4-0.4-12.6c0.2-7.2,1.5-14.3,4-21c2-5.3,5.1-10.9,10.1-14
	c3.2-2,7.1-2.6,10.8-3.3c2.2-0.4,4.4-0.6,6.7-0.7c2.1-0.2,4.2-0.1,6.3,0.3l-0.6-2.3l1-0.4c-1.6,0-3.1,0-4.7-0.2l-3.1-0.1h-1.1
	c-0.1,0-0.3,0-0.4,0c-0.5,0.1-0.4-0.6,0.7,0.4l-1,2.3c2.2-0.2,4.3-1.2,6.5-1.6c2.4-0.4,4.8-0.6,7.2-0.4c4.9,0.4,9.6,1.9,13.8,4.4
	c4,2.4,7.9,5,11.6,7.9c3.7,2.7,7,5.8,9.9,9.4c0.7,0.9,2,2.3,1.9,3.5c0,0.8-0.8,1.1-1.4,1.4c-1.6,0.8-3.2,1.3-4.2,2.9
	s1.4,2.7,2.3,1.3s2.9-1.5,4.1-2.3c1.7-1,2.4-3.2,1.7-5c-1-2.2-2.4-4.2-4.2-5.9c-1.7-1.8-3.5-3.5-5.4-5c-3.9-3.3-8.1-6.3-12.4-9
	c-4.3-2.9-9.1-4.9-14.2-5.8c-2.9-0.5-5.9-0.6-8.8-0.3c-1.4,0.2-2.7,0.4-4.1,0.7c-1.4,0.5-2.8,0.9-4.2,1.2c-1.1,0.1-1.9,1.5-1,2.3
	c0.6,0.4,1.4,0.6,2.1,0.5l3.6,0.2c1.2,0,2.4,0.1,3.5,0.1c0.7,0,1.7,0.2,2.2-0.4c0.5-0.5,0.5-1.4,0-1.9c-0.2-0.2-0.4-0.3-0.6-0.3
	c-4-0.9-8.4-0.5-12.4,0.1s-8,1.2-11.6,2.9c-6,2.8-9.9,8.8-12.4,14.7c-2.9,7.1-4.5,14.7-4.8,22.4c-0.2,4.7,0,9.5,0.4,14.2
	c0.2,2.3,0.4,4.6,0.8,6.9c0.4,2.1,1.9,2.6,3.8,2.4c9.4-1.1,18.3-4.8,25.6-10.7c0.4-0.4,0.5-1,0.2-1.5c-2-4.4-0.5-10,4.2-11.8
	c4-1.6,8.9,0.9,9.2,5.4c0,0.7,0.6,1.3,1.3,1.3c0.1,0,0.2,0,0.3,0c6.8-1.5,13.4-3.8,19.6-6.8c5.2-2.6,10.8-5.8,13.3-11.3
	C194,96.7,192.5,95.8,191.9,96.9L191.9,96.9z"/>
<path d="M118.2,126.4c-0.6,8.3-1.2,16.6-1.9,24.9c-0.3,4.1-0.7,8.2-1,12.3c-0.4,4.2-1,8.4-1,12.6c0,1.3,2.1,1.7,2.4,0.3
	c0.7-4.1,1.2-8.2,1.4-12.4c0.4-4.2,0.7-8.4,1-12.6c0.6-8.4,1.1-16.8,1.4-25.2C120.5,124.9,118.2,125,118.2,126.4L118.2,126.4z"/>
<path d="M151.3,176.6L151.3,176.6l0.5-0.7h-0.1l0.7-0.1h-0.1l0.6,0.4c0.1,0.3,0.1,0.3,0.1,0.1v-0.2l0.1-0.6c0-0.3,0.1-0.7,0.1-1
	l0.1-2.1l0.3-4.3c0.1-0.7-0.4-1.3-1.1-1.4c-0.7-0.1-1.3,0.4-1.4,1.1c0,0.1,0,0.1,0,0.2l-0.1,5.8c-0.1,0.9-0.1,1.8,0,2.8
	c0,0.6,0.5,1,1.1,1s1-0.5,1-1c0-0.1,0-0.2,0-0.3C152.9,175.4,151.2,175.6,151.3,176.6L151.3,176.6z"/>
<path d="M111,176c2.6,2.7,6.2,3.5,9.8,3.8c4.4,0.3,8.9,0.2,13.3,0.2h14.4h4c1,0.1,2,0.1,2.9-0.1c1.8-0.7,1.7-3.7-0.5-3.5
	c-1.4,0.2-2.1,2.4-0.4,2.8h0.2l-0.9-0.7l0.1,0.2l-0.1-1.1c0.8-0.5,0.8-0.7,0.1-0.6h-0.5H152l-3,0.1l-6,0.1
	c-3.9,0.1-7.8,0.1-11.7,0.2c-3.5,0.1-7,0.3-10.5,0.1c-3-0.1-6.2-0.7-8.5-2.8C111.4,173.9,110.1,175.1,111,176L111,176z"/>
<path d="M104.2,188.7c3-3.2,2.3-7.8,3-11.8c0.2-2,1.2-3.9,2.8-5.1c2-1.1,4.1-1.9,6.4-2.2c1.9-0.4,1.1-3.3-0.8-2.8
	c-2.3,0.4-4.6,1.2-6.6,2.4c-2,1.3-3.3,3.2-3.9,5.5c-0.4,2.2-0.6,4.4-0.5,6.6c-0.1,2.1-0.3,4.4-1.7,6.1
	C102.1,188.3,103.4,189.6,104.2,188.7L104.2,188.7z"/>
<path d="M152.5,170.5c2.2,0.4,4.4,1.2,6.4,2.3c1.7,1,3.6,2.3,3.9,4.4s-0.5,4.4-0.5,6.6c-0.1,2.5,0.2,5,0.9,7.4
	c0.4,1.5,2.6,0.9,2.3-0.6c-0.5-2.7-0.6-5.6-0.2-8.3c0.3-2.4,0.8-4.9-0.3-7.3c-1-2.1-3-3.5-5-4.5c-2.3-1.1-4.8-1.7-7.3-1.7
	C151.7,168.7,151.4,170.3,152.5,170.5L152.5,170.5z"/>
<path d="M107.6,199.7c-9.6,8.9-14.9,21.7-16.3,34.6c-1.8,15.4,1.4,31,5.4,45.8c7.6,27.7,20.2,53.8,37,77
	c7.9,10.9,17.1,21.6,29.4,27.7c12.8,6.4,27.5,7.4,41.5,5c14.7-2.5,28.6-8.7,41.7-15.7c13.2-7,25.7-15.3,37.4-24.6
	c5.4-4.1,10.2-8.9,14.4-14.2c2.1-2.7,3.8-5.7,5.1-8.8c0.6-1.5,1.1-3,1.8-4.5c0.8-1.6,1.7-3.2,2.8-4.7c2-3.1,2.2-6.9,0.6-10.2
	c-1.2-2.9-2.8-5.7-4.7-8.3c-1.7-2.3-4.1-4.4-7-5c-2.6-0.4-5.3,0.3-7.3,1.9c-2,1.5-2.9,4-2.4,6.4l2.6-1.5c-3.5-4.5-9.6-4.2-14.7-3.1
	c-3.1,0.7-6.1,1.9-9.2,2.8c-3.5,1.1-7,2.2-10.5,3.1c-14.4,4-29.2,6.9-43.9,9.5c-3.6,0.6-7.1,1.3-10.7,1.9c-2.8,0.5-6,1-8.8-0.1
	s-4-4-4.8-6.8c-1.1-3.6-2.2-7.3-3.4-10.9c-4.5-14.4-9.5-28.6-14.8-42.7c-3-7.8-6-15.6-9.3-23.3c-2.9-6.8-6.1-13.6-11.4-18.8
	c-0.5-0.4-1.3-0.4-1.7,0.1s-0.4,1.2,0,1.6c4.7,4.7,7.7,10.9,10.2,17c2.9,6.9,5.6,13.8,8.2,20.8c5.4,14.2,10.3,28.5,14.9,42.9
	c1.1,3.5,2.2,7.1,3.2,10.6c0.9,3.1,1.6,6.5,3.6,9.1c3.9,5.3,10.9,4.1,16.5,3.1c14.7-2.6,29.4-5.2,43.9-8.8c8.1-2,16.1-4.3,23.9-6.9
	c5-1.7,12.5-4,16.4,1c1,1.3,2.9-0.1,2.6-1.5c-0.5-2.3,1.8-3.8,3.7-4.3c2.5-0.7,4.8,0.6,6.6,2.4c1.9,2.2,3.5,4.6,4.7,7.3
	c0.9,1.5,1.5,3.1,1.7,4.8c0,1.7-0.5,3.3-1.5,4.7c-0.9,1.3-1.7,2.6-2.4,4c-0.7,1.6-1.3,3.2-2,4.8c-1.2,2.9-2.8,5.7-4.6,8.2
	c-3.7,5.1-8.5,9.5-13.4,13.4c-11,8.9-22.9,16.8-35.3,23.6c-12.3,6.7-25.2,12.7-39,15.8c-13.2,2.9-27.3,2.8-40-2.3
	c-12-4.8-21.4-14.4-29.1-24.5c-16.4-21.6-29-45.8-37.1-71.6c-8-25.1-15-56,1-79.5c1.7-2.6,3.8-5,6-7.1
	C109.9,200.2,108.5,198.8,107.6,199.7L107.6,199.7z"/>
<path d="M295.4,310.6c1.6,2.3,3.4,4.6,4.8,7.1c1.1,1.9,2.1,4.4,0.9,6.5c-0.9,1.4,1.2,2.5,2.2,1.3c1.8-2.4,1-5.7-0.5-8
	c-0.9-1.3-1.9-2.5-2.8-3.7l-3-4C296.2,308.8,294.7,309.6,295.4,310.6L295.4,310.6z"/>
<path d="M166.9,192.8c3,7.5,8.9,12.8,14.2,18.5c5.5,6,9.9,13,12.8,20.6c6.4,16.4,6.7,34.5,4.2,51.7c-0.8,5.4-1.9,10.8-3,16.1
	c-0.6,2.6-1.2,5.2-1.8,7.7c-0.3,1.3-0.7,2.6-1,4c-0.1,0.6-0.3,1.2-0.5,1.7c-0.1,0.2-0.2,0.4-0.3,0.6l-0.1,0.2c-0.2,0.2-0.2,0.2,0,0
	c-2-0.7-2.8,2.4-0.9,3.1s3.5-1,4.2-2.7c0.8-2.4,1.4-4.7,1.9-7.2c1.2-4.9,2.3-9.9,3.3-14.8c2-10,3-20.1,2.9-30.2
	c-0.4-17.2-5-34.7-16-48.3c-5.9-7.3-14.2-13-18.2-21.7C168.1,191.1,166.5,191.8,166.9,192.8L166.9,192.8z"/>
<path d="M102.1,188.7c-11.6,10.7-18.9,25.4-23.5,40.4c-4.9,16.1-6.7,32.8-8,49.5c-0.7,10-1.3,20.1-2.4,30.1
	c-0.6,5.1-1.3,10.1-2.3,15.2s-2.3,9.8-3.4,14.7c-1,4.7-1.4,9.6-0.2,14.3c1.1,4.1,3.1,7.8,5.8,11.1c5.7,7,14,11.2,22.4,14.1
	c18.5,6.2,38.2,7.6,57.4,4c2.4-0.5,4.8-1,7.2-1.6c2.2-0.5,1.3-3.9-0.9-3.4c-18.4,4.6-37.7,4.4-56-0.5c-8.4-2.3-17.1-5.4-23.7-11.2
	c-3.1-2.6-5.5-5.9-7.3-9.5c-1.8-4-2.4-8.4-1.9-12.7c0.6-4.9,2.1-9.7,3.1-14.5s1.8-9.5,2.4-14.4c1.3-9.8,1.9-19.6,2.5-29.4
	c1.1-16.7,2.3-33.4,6.5-49.6c3.8-14.8,9.6-29.7,19.9-41.2c1.2-1.4,2.5-2.7,3.8-3.9C104.5,189.1,103.1,187.8,102.1,188.7L102.1,188.7
	z"/>
<path d="M295.5,295.4c1.6-2.8,2.9-5.8,4.6-8.6c1.7-2.8,3.7-5.4,6.1-7.7c4.4-4.4,10.6-6.4,16.8-5.6c0.7,0.2,1.5-0.3,1.6-1
	c0.2-0.7-0.2-1.4-0.9-1.6c-6.6-2.1-13.9,1.1-18.8,5.6c-2.6,2.4-4.8,5.3-6.5,8.4c-1.9,3.1-3.4,6.4-4.6,9.9c-0.1,0.5,0.2,1,0.6,1.1
	C294.9,295.9,295.3,295.8,295.5,295.4L295.5,295.4z"/>
<path d="M322.6,280.1c4.6-0.3,9.2-1.1,13.6-2.5c4.3-1.3,8.5-2.9,13-3.7c1.7-0.3,0.9-2.7-0.7-2.5c-4.3,0.6-8.4,2.5-12.5,3.9
	c-4.3,1.5-8.8,2.4-13.4,2.8C321.3,278.3,321.3,280.2,322.6,280.1L322.6,280.1z"/>
<path d="M309.9,310.5c4-0.3,8.2-1.7,12-3c11.8-4.1,22.4-11.2,30.8-20.5c1.4-1.6,2.9-3.5,3.3-5.6c0.5-2-0.2-4.1-1.8-5.4
	c-0.8-0.6-1.9,0.6-1.4,1.4c2.5,3.5-0.8,6.8-3.2,9.3c-2.6,2.7-5.5,5.2-8.5,7.5c-5.9,4.5-12.5,8.1-19.4,10.8c-1.9,0.8-3.9,1.4-5.9,2
	s-4.2,1-6.2,1.6C308.7,308.8,308.8,310.5,309.9,310.5L309.9,310.5z"/>
<g>
	<path class="st0" d="M73.7,388.7c2,1.1,4,2,6.1,2.9c1,0.4,2.1,0.9,3.1,1.3c0.9,0.4,2,0.8,3,0.9c2.6,0.1,2.1-3.3,2.1-5l0.1-3.6
		c0-1.2,0.1-2.4,0-3.6c0-0.6-0.4-1-1-1s-1,0.4-1,1c-0.1,1-0.1,2.1-0.1,3.1l-0.1,3.1l-0.1,3c0.1,0.4,0,0.7-0.1,1.1c0,0.1,0,0.1,0.1,0
		c-0.1,0-0.2,0-0.3,0c-0.2-0.1-0.4-0.1-0.6-0.2c-3.6-1.2-7.1-2.7-10.5-4.5c-1.1-0.6-2,1.1-1,1.6L73.7,388.7z"/>
	<path class="st0" d="M98.5,438c-0.2-9.4-0.3-18.8-0.5-28.2l-1.6,1.2c7.3,1.9,14,5.5,19.5,10.5v-1.9c-2.8,2.8-5.9,5.4-9.1,7.7
		c-1.5,1.1-3.1,2.2-4.7,3.2s-3.6,2-5.3,3.1c-1,0.7-0.4,2.7,0.9,2.2c1.9-0.8,3.6-1.7,5.3-2.8c1.8-1.1,3.6-2.3,5.3-3.5
		c3.3-2.4,6.5-5.1,9.4-8c0.5-0.5,0.5-1.3,0-1.8c-5.9-5.3-13-9.1-20.7-11c-0.7-0.2-1.3,0.2-1.5,0.9c0,0.1,0,0.2,0,0.3
		c0.3,9.4,0.7,18.8,1,28.2c0,0.5,0.4,0.9,0.9,0.9S98.4,438.6,98.5,438L98.5,438z"/>
	<path class="st0" d="M70.3,445.9c4.2,1.8,8.2,3.8,12.1,6.2l-0.2-1.7c-3.2,3.2-6,6.6-8.5,10.4c-0.8,1.2,1.1,2.2,1.9,1.1
		c2.4-3.5,5.1-6.9,8.1-10c0.4-0.4,0.4-1.1,0-1.5c-0.1-0.1-0.1-0.1-0.2-0.1c-4.1-2.4-8.3-4.4-12.7-6.1
		C69.6,443.6,69.2,445.4,70.3,445.9L70.3,445.9z"/>
	<path class="st0" d="M94.6,499.9l2.1-12.9l1-6.4L98,479c0-0.3,0-1.1,0.2-1.3s-0.2,0,0,0.1c0.3,0.1,0.5,0.3,0.8,0.4l1.5,0.9
		c3.6,2,7.1,4.1,10.5,6.3c0.9,0.5,1.7,1.1,2.6,1.7c0.4,0.2,0.7,0.5,1,0.8c0.4,0.4,0.4,0.4,0,0.8c-0.8,0.6-1.6,1.1-2.5,1.5l-2.6,1.5
		l-6.3,3.6l-3.1,1.8l-1.6,0.9c-0.2,0.1-0.3,0.2-0.5,0.3c-0.4,0-0.5,0.3-0.2,0.8s0.1,0.9-0.4,0.8l-0.7-0.5l-0.1-0.3
		c-0.1,1.5,2.2,1.5,2.4,0c0.2-2.1-3.2-1.7-3.2,0.3c0.1,0.9,0.8,1.7,1.8,1.7c1.3,0.1,2.5-0.9,3.6-1.5l7.8-4.5l3.9-2.3
		c1.2-0.6,2.4-1.3,3.5-2.1c2.1-1.7,0.9-3.9-0.9-5.2c-2.4-1.7-5-3.3-7.5-4.8s-5-3-7.6-4.4c-1-0.5-2.2-1.3-3.3-0.5
		c-0.9,0.6-1,1.8-1.2,2.8c-1,7-2.1,14-3.1,21C92.5,500.6,94.4,501.2,94.6,499.9L94.6,499.9z"/>
	<path class="st0" d="M159.8,443c-5.5,0.5-11,1.5-16.3,3c-2.6,0.7-5.2,1.6-7.6,2.6c-0.8,0.2-1.5,0.9-1.6,1.8
		c-0.1,1.2,0.8,2.4,1.3,3.4c2.5,4.5,5.6,8.7,9.1,12.5c1.4,1.5,3.2,3.9,5.5,2.9c2-0.9,3-3.8,4-5.5c3-5.5,5.7-11.1,8.1-16.9
		c0.6-1.5-1.8-2.1-2.4-0.6c-1.8,4.2-3.7,8.3-5.8,12.3c-1.1,2.1-2.2,4.1-3.4,6.1c-0.3,0.5-0.9,2.1-1.6,2.2s-1.9-1.4-2.3-1.9
		c-2.9-3.1-5.6-6.5-7.9-10.1c-0.5-0.9-1.1-1.8-1.6-2.6c-0.1-0.2-0.8-1.1-0.7-1.4c0.4-0.1,0.8-0.3,1.2-0.5c2.2-0.9,4.4-1.6,6.6-2.3
		c5-1.5,10.1-2.6,15.2-3.1C160.9,444.7,160.9,442.9,159.8,443L159.8,443z"/>
	<path class="st0" d="M129.5,387.8c2,2.3,3.9,4.5,5.9,6.7l2.8,3.2c0.7,0.8,1.5,1.9,2.7,1.6s1.6-1.4,2.2-2.3l2.4-3.9
		c1.6-2.6,3.3-5.2,4.7-7.8c0.3-0.5,0.1-1.1-0.4-1.4s-1.1-0.1-1.4,0.4c-1.4,2.2-2.7,4.5-4,6.7l-2,3.3l-1.1,1.8
		c-0.2,0.3-0.5,1.3-0.9,1.4c0.2-0.1,0-0.1-0.1-0.2s-0.4-0.4-0.6-0.6l-1.2-1.4l-2.5-2.8c-1.7-1.9-3.5-3.9-5.2-5.9
		C130,385.6,128.7,386.9,129.5,387.8L129.5,387.8z"/>
	<path class="st0" d="M198.7,403.5c-6.3,0.7-12.6,1.9-18.7,3.6c-2.4,0.7-4.8,1.5-4.4,4.5c0.4,2.7,1.8,5.4,2.9,7.9
		c1.2,2.7,2.6,5.4,4.1,8c0.7,1.2,1.5,2.4,2.3,3.6c0.6,1,1.3,2.4,2.5,3c2.6,1.3,4.3-2,5.3-3.8c1.4-2.5,2.6-5.1,3.6-7.8
		c1.2-3.1,2.1-6.2,2.8-9.4c0.4-1.6,0.6-3.3,0.9-5c0.2-1.1,0.3-2.5,1.4-3.1s0.4-2.7-0.9-2.2c-1.9,0.7-2.6,2.5-2.9,4.4
		c-0.4,2.4-0.8,4.9-1.4,7.3c-1.2,5-3.1,9.9-5.6,14.4c-0.3,0.5-1.2,2.9-1.9,2.9s-1.8-2.3-2.1-2.8c-1.4-2.2-2.7-4.5-3.9-6.8
		c-1.2-2.4-2.3-4.8-3.2-7.3c-0.5-1.1-0.8-2.2-1.1-3.3c-0.4-1.6,1.3-1.7,2.5-2.1c6-1.8,12.1-3.2,18.3-4.1
		C200,405.1,199.7,403.4,198.7,403.5L198.7,403.5z"/>
	<path class="st0" d="M239.6,402.6c-3.5,0-6.9,0.7-10.1,1.9c-1.6,0.6-3.1,1.3-4.6,2.1c-1.3,0.7-3.1,1.6-3.9,2.9s-0.4,2.9,0.5,4.2
		c1.1,1.6,2.4,3.2,3.6,4.8l7.6,10c0.4,0.6,1.2,0.8,1.8,0.4c0.2-0.1,0.3-0.2,0.4-0.4c2.2-3.5,4.1-7,5.8-10.7c0.8-1.8,1.6-3.6,2.3-5.4
		c0.9-1.9,1.6-3.8,2-5.9c0.2-1.3-1.6-2.3-2.3-1c-0.9,1.8-1.4,3.8-2.1,5.7s-1.5,3.6-2.3,5.4c-1.7,3.6-3.6,7.1-5.7,10.5h2.3l-6.3-8.3
		l-3.1-4c-0.5-0.7-1-1.3-1.5-2s-1.3-1.4-0.9-2.1c0.3-0.5,1.1-0.9,1.6-1.2c0.6-0.4,1.3-0.8,1.9-1.2c1.3-0.7,2.6-1.4,4-1.9
		c2.9-1.1,5.9-1.7,9-2c0.5-0.1,0.8-0.7,0.7-1.2C240.2,402.9,239.9,402.6,239.6,402.6L239.6,402.6z"/>
	<path class="st0" d="M90.1,539.5c2.6,0.8,5.4,1.5,8,2.2s5.3,1.6,8,2.4l-0.5-1.9c-2.9,3.6-5.9,7.2-8.8,10.7l-2.1,2.6
		c-0.6,0.8-1.6,1.6-1.7,2.6c-0.1,1.8,2.6,2.5,3.1,0.6c0.4-1.5-2-2.2-2.4-0.7v0.1l0.6-0.7c0.6,1.1,1.1,1.3,1.4,0.6l0.3-0.3l0.7-0.9
		l1.5-1.8l3.1-3.8c2-2.5,4-5,6-7.5c0.4-0.5,0.4-1.2,0-1.6c-0.1-0.1-0.3-0.2-0.5-0.3c-2.7-0.8-5.3-1.6-8-2.3s-5.4-1.5-8.1-2
		c-0.5-0.1-1,0.2-1.1,0.7C89.4,539,89.7,539.4,90.1,539.5L90.1,539.5z"/>
	<path class="st0" d="M139.6,543.1l1.4-15.3c0-1.1,0.2-2.1,0.4-3.2c0.3-1.3,0.9-1.9,2.3-1.3c2.3,1.1,4.5,2.5,6.8,3.7l7,3.8l3.3,1.8
		c1.1,0.5,2.2,1.1,3.3,1.8c0.4,0.4,0.3,0.3,0,0.6c-0.3,0.2-0.6,0.4-1,0.5c-1.1,0.3-2.2,0.5-3.3,0.7c-2.3,0.5-4.5,1-6.7,1.7
		c-5.1,1.5-10,3.6-14.7,6.2c-1.4,0.8-0.1,2.9,1.2,2.1c5-2.8,10.3-4.9,15.9-6.5c2.6-0.7,5.4-1,8-1.8c1.7-0.5,3.8-1.8,3.3-3.8
		c-0.3-0.9-1-1.6-1.8-2c-1.4-0.8-2.8-1.5-4.2-2.3l-8.4-4.5c-2.6-1.4-5.3-3.1-8.1-4.3c-2.2-0.9-4,0.2-4.7,2.3
		c-0.3,1.4-0.5,2.7-0.5,4.1l-0.4,4.9l-0.8,10.7C137.5,544.4,139.5,544.3,139.6,543.1L139.6,543.1z"/>
	<path class="st0" d="M195.1,477.7c-6.4,2-12.4,5.2-17.5,9.6c-0.5,0.5-0.5,1.3,0,1.8c2.4,2.9,5.2,5.5,8.3,7.7c3,2.2,6.2,4,9.7,5.2
		c1.5,0.6,3.2-0.1,3.8-1.6c0-0.1,0.1-0.2,0.1-0.3c0.2-0.8,0.2-1.6,0.2-2.4l0.1-3.5c0.2-4.5,0.6-9,0.5-13.5c-0.1-0.7-0.6-1.1-1.3-1.1
		c-0.6,0.1-1,0.5-1.1,1.1c-0.4,3.8-0.4,7.6-0.6,11.3l-0.3,5.7c0,0.4,0.1,1.7-0.4,1.8s-1.6-0.6-2.1-0.8c-5.9-2.6-11.1-6.6-15.3-11.5
		v1.8c4.7-4.2,10.2-7.5,16.2-9.5C196.8,479.1,196.3,477.3,195.1,477.7L195.1,477.7z"/>
	<path class="st0" d="M242.1,451.4l-14.8,4.1c-2.5,0.6-4.9,1.2-7.3,2.1c-2,0.8-1.9,2.6-1,4.3c4.1,7.7,9.8,14.5,16.8,19.9
		c0.5,0.5,1.3,0.5,1.8-0.1c0.1-0.1,0.2-0.3,0.3-0.5l9.8-29.3c0.5-1.6-2-2.3-2.5-0.7l-9.8,29.3l2.1-0.6c-6-4.8-11.2-10.6-15.1-17.1
		c-0.5-0.7-1-1.5-1.4-2.4c-0.2-0.6-0.2-0.6,0.5-0.8l1.7-0.5l6.4-2l13.1-4c0.5-0.1,0.8-0.6,0.6-1.1S242.6,451.2,242.1,451.4
		L242.1,451.4z"/>
	<path class="st0" d="M294.3,422.3c-4.7,1.6-9.4,3.6-13.8,5.9c-1.1,0.6-2.2,1.2-3.2,1.8c-1.1,0.5-2,1.1-2.9,1.9
		c-1.6,2,1.1,4,2.4,5.2c3.6,3.4,7.4,6.4,11.5,9.1c1.8,1.2,3.8,2.8,5.8,1c1.5-1.5,2.5-3.4,2.9-5.5c0.7-2.7,1.1-5.5,1.6-8.2
		c0.6-3,1.2-6,1.5-9c0.2-1.4-2.1-1.7-2.5-0.3c-1.1,4.3-1.7,8.6-2.5,13c-0.3,1.9-0.7,3.7-1.2,5.5c-0.3,0.8-0.7,1.5-1.2,2.2
		c-0.3,0.4-0.5,0.6-1,0.5c-0.5-0.2-1-0.5-1.4-0.9c-3.5-2.2-6.7-4.7-9.8-7.4c-0.7-0.7-1.5-1.3-2.2-2l-0.9-0.9c-0.2-0.1-0.8-1-0.9-0.7
		c0-0.2,1.1-0.7,1.3-0.8l1.3-0.8c0.9-0.6,1.9-1.1,2.8-1.6c4.2-2.3,8.5-4.3,13-6C295.9,423.8,295.4,422,294.3,422.3L294.3,422.3z"/>
	<path class="st0" d="M264.1,404.4c1.3,2.7,2.5,5.3,3.9,8c0.6,1.3,1.3,2.6,2,4c0.5,1,1.3,2,2.5,1.7s2.2-1.6,3-2.4
		c1-0.9,1.9-1.9,2.7-2.9c1.8-2,3.4-4.2,4.9-6.4c0.8-1.2-1.1-2.3-1.9-1.1c-2.5,3.8-5.4,7.3-8.8,10.3c-0.1,0.1-0.5,0.3-0.2,0.4
		c-0.2-0.2-0.3-0.4-0.4-0.7l-0.9-1.7l-1.7-3.3c-1.2-2.3-2.4-4.5-3.6-6.8C265.2,402.5,263.6,403.4,264.1,404.4L264.1,404.4z"/>
	<path class="st0" d="M204.1,555.4c0.2-4.5,0.7-9.1,1.6-13.5c0.2-1.9,0.8-3.7,1.6-5.4c1.2-1.9,3-1.5,4.5-0.2c1.5,1.4,3,3,4.4,4.6
		l4.8,5.1l9.5,10.2l0.9-2.1c-9.3-0.5-18.8-0.9-27.8,2.1c-1.6,0.5-0.9,3,0.7,2.5c8.7-3,18-2.5,27.1-2.1c0.7,0,1.2-0.6,1.2-1.2
		c0-0.3-0.1-0.6-0.4-0.8c-5.7-6-11.4-12.1-17.1-18.1c-2-2.2-5.1-4.8-8.1-2.7c-2.5,1.8-2.9,5.6-3.4,8.4c-0.8,4.4-1.3,8.9-1.4,13.4
		c0.1,0.5,0.7,0.8,1.2,0.7C203.7,556,204,555.8,204.1,555.4z"/>
	<path class="st0" d="M131.2,603.4l-12.4-15.7l-0.2,1.9c9.6-4.7,20-7.8,30.6-9.1l-1.1-1.9c-2.2,5-4.5,9.9-6.9,14.8
		c-1.2,2.3-2.3,4.6-3.6,6.9c-1,1.7-2.3,3.7-4.4,3.8c-0.7,0-1.3,0.6-1.3,1.3s0.6,1.3,1.3,1.3c5.1,0.2,7.4-6.5,9.3-10.2
		c2.8-5.4,5.4-10.9,7.8-16.5c0.3-0.8,0-2-1.1-1.9c-11.1,1.3-21.9,4.5-31.8,9.6c-0.6,0.3-0.8,1.1-0.4,1.6c0,0.1,0.1,0.2,0.2,0.2
		l12.7,15.4C130.6,605.8,132,604.4,131.2,603.4L131.2,603.4z"/>
	<path class="st0" d="M175,590.8l10.1,9.5c1.6,1.5,3.2,3.2,4.9,4.6c1.1,1,2.8,0.9,3.7-0.2c0.1-0.1,0.1-0.1,0.2-0.2
		c1.2-1.5,1.9-3.6,2.6-5.3c0.9-2,1.7-4,2.5-6c1.7-4.2,3.2-8.5,4.6-12.8c0.2-0.6-0.2-1.2-0.8-1.4c-0.1,0-0.2,0-0.3,0
		c-9.2,0.7-18,4-25.2,9.8c-1.2,1,0.5,2.7,1.7,1.7c6.8-5.3,14.9-8.5,23.5-9.2l-1.1-1.4c-2.4,7.4-5.2,14.6-8.4,21.7
		c-0.2,0.5-0.6,1.6-1.1,1.9s-1.9-1.3-2.3-1.6l-4.3-4l-9-8.2C175.4,588.6,174.1,590,175,590.8L175,590.8z"/>
	<path class="st0" d="M135.6,641l18.1-14.1l-1.8-0.5c1.7,5.3,4.4,10.9,8.2,15c0.9,0.9,2.5-0.3,1.8-1.4c-1.7-2.1-3.2-4.4-4.6-6.7
		c-1.3-2.4-2.4-4.9-3.3-7.5c-0.2-0.6-0.8-0.9-1.4-0.7c-0.2,0.1-0.3,0.1-0.4,0.3l-17.8,14.3C133.3,640.4,134.7,641.7,135.6,641
		L135.6,641z"/>
	<path class="st0" d="M239.4,623c3.3-5,6.5-10.2,10-15.1l-1.7,0.2c4,4.9,7.5,10.1,11.1,15.3c0.8,1.2,2.8,0.1,2-1.2
		c-3.4-5.5-7.3-10.8-11.5-15.7c-0.4-0.4-1.2-0.4-1.6,0c-0.1,0.1-0.1,0.1-0.2,0.2c-3.1,5.2-6.5,10.2-9.7,15.3
		C237.2,623,238.8,624,239.4,623L239.4,623z"/>
	<path class="st0" d="M284.3,564c-7,3.7-13.7,7.8-20.2,12.4c-0.6,0.4-1,1.5-0.3,2c4,3.1,8.2,6.1,12.3,9.1c1.7,1.4,3.6,2.8,5.5,4
		c1.4,0.9,3,1.3,4.7,1.1c1.7-0.4,2.9-1.8,2.9-3.5c0.3-2.4,0.3-4.8,0.4-7.2l0.4-7.4c0.3-2.6,0.4-5.2,0.4-7.9
		c-0.1-1.3-2.2-1.8-2.4-0.3c-0.3,2.1-0.4,4.3-0.5,6.5l-0.4,6.6l-0.4,6.4c-0.1,1.2,0.4,4.2-1.4,4.2c-1.4,0-2.8-1-3.9-1.8l-5.2-3.8
		c-3.6-2.7-7.2-5.4-10.8-7.9l0.3,2c6.2-4.7,12.7-9,19.6-12.8C286.3,565,285.4,563.4,284.3,564L284.3,564z"/>
	<path class="st0" d="M272.4,505.3c-8,2.2-15.7,5.6-22.8,10c-0.6,0.4-0.8,1.1-0.4,1.7c0.1,0.2,0.2,0.3,0.4,0.4
		c7.3,5.2,14.6,10.3,21.9,15.4c0.6,0.4,1.4,0.1,1.7-0.5c0.1-0.2,0.2-0.4,0.2-0.6c0.2-4.1,0.5-8.2,1-12.2s1.2-8.1,1.7-12.1
		c0.2-1.3-1.9-1.5-2.2-0.3c-1,4-1.7,8.1-2.1,12.2c-0.5,4.1-0.8,8.3-1,12.5l1.9-1.1c-7.3-5.1-14.6-10.2-22-15.3v2.1
		c6.9-4.5,14.3-7.9,22.1-10.3c0.5-0.2,0.7-0.9,0.4-1.3C273.2,505.5,272.8,505.3,272.4,505.3L272.4,505.3z"/>
	<path class="st0" d="M310.1,468.4l-16.5,5.6c-1.9,0.7-4.5,1.2-5.8,2.9s-0.4,3.8,1,5.3c3.8,4.5,7.7,8.7,11.5,13.1
		c0.6,0.7,1.3,1.8,2.3,2c0.9,0.2,1.9-0.2,2.4-0.9c0.6-0.9,1-1.9,1.3-3l1.5-4.2l3.3-9.1c1.2-3.1,2.3-6.2,3.2-9.4
		c0.3-1.2-1.5-2.1-2.1-0.9c-0.9,2.2-1.7,4.4-2.4,6.6l-2.4,6.8L305,490l-1.2,3.3c-0.2,0.5-0.4,0.9-0.5,1.4c0,0.2-0.4,0.3,0,0.3
		c-0.1,0-0.5-0.5-0.5-0.6c-3.2-3.6-6.4-7.2-9.5-10.9l-2.3-2.6c-0.6-0.7-1.7-1.6-1.1-2.6c0.5-0.6,1.2-1.1,2-1.3
		c1.1-0.4,2.3-0.8,3.4-1.2l15.4-5.6C311.8,469.8,311.3,468,310.1,468.4L310.1,468.4z"/>
	<path class="st0" d="M330.4,436c-0.5,6.4,0.7,12.9,3.5,18.7c0.3,0.5,1,0.7,1.6,0.4c0.1,0,0.1-0.1,0.2-0.2
		c4.8-4.3,9.8-8.5,14.5-12.8c1.1-1-0.5-2.5-1.6-1.6c-5,4-9.8,8.5-14.5,12.8l1.8,0.2c-2.7-5.4-3.9-11.5-3.5-17.5
		C332.4,434.8,330.5,434.8,330.4,436L330.4,436z"/>
	<path class="st0" d="M363.1,476.7c-6.9-2-14.2-2.6-21.3-1.6c-0.7,0-1.3,0.6-1.2,1.3c0,0.1,0,0.2,0,0.3c1.1,4.9,2.3,9.9,3.6,14.8
		c0.6,2.4,1.3,4.7,1.9,7.1c0.5,1.6,0.7,4.5,2.4,5.5c1.9,1,3.3-0.7,4.2-2.1c1.3-2.1,2.6-4.3,3.9-6.4c2.7-4.4,5.5-8.8,8-13.3
		c0.3-0.6,0.1-1.3-0.5-1.6c-0.5-0.3-1.2-0.1-1.5,0.4c-2.4,3.6-4.6,7.4-6.8,11l-3.4,5.5l-1.8,3c-0.2,0.4-0.4,0.7-0.7,1
		c0,0.3,0,0.2-0.1-0.1s-0.1-0.4-0.2-0.5c-2.4-8.2-4.4-16.6-6.5-24.9l-0.9,1.5c6.8-1.1,13.8-0.7,20.5,1.1c0.5,0.1,1.1-0.2,1.2-0.7
		S363.7,476.8,363.1,476.7L363.1,476.7z"/>
	<path class="st0" d="M326,525.4c-5.9,4.3-11.7,8.7-17.7,12.9c-0.6,0.4-0.8,1.3-0.4,1.9c0.2,0.3,0.4,0.5,0.7,0.6
		c4.1,1.4,7.9,3.6,11.2,6.4c2,1.7,6,7.6,9.1,4.5c1.5-1.5,1-4.4,1-6.3c0-2.6-0.2-5.2-0.4-7.8c-0.3-3.4-1.5-8.3,1.6-10.8
		c1.1-0.9-0.3-2.7-1.5-1.9c-3,1.9-3.3,5.6-3.1,8.9c0.3,4.7,0.7,9.3,0.6,14c0,0.3,0.2,1.5-0.1,1.7s-0.2,0.1-0.5,0
		c-0.9-0.3-1.6-1.3-2.1-1.9c-1.4-1.5-2.8-2.8-4.4-4c-3.2-2.4-6.8-4.3-10.6-5.5l0.6,2.3c5.7-4.6,11.4-9,17.2-13.5
		C328.1,526.2,326.9,524.7,326,525.4L326,525.4z"/>
	<path class="st0" d="M362.6,552.7c-2.1-5.4-4.1-10.7-6.2-16.1l-1.5,1.5l8.8,1.9c2.9,0.8,5.8,1.4,8.8,1.8c1.4,0.1,1.5-1.9,0.3-2.3
		c-1.4-0.4-2.8-0.8-4.3-1l-4.3-0.9l-8.6-1.8c-0.8-0.2-1.9,0.6-1.5,1.5c2.2,5.3,4.5,10.6,6.8,15.9C361.2,554.3,363,553.9,362.6,552.7
		L362.6,552.7z"/>
	<path class="st0" d="M395,472.6c-2.3,2.7-4.3,5.6-6.4,8.4s-4.2,5.6-6.3,8.4c-0.8,1.1-1.3,2.3-0.7,3.6s2.1,2.1,3.2,3
		c2.7,2.2,5.3,4.6,8.2,6.6c1.2,0.8,2.6-1,1.5-2c-2.1-2-4.7-3.8-7-5.7c-1.2-0.8-2.3-1.7-3.4-2.7c-0.6-0.6-0.2-0.9,0.2-1.5
		s1-1.3,1.4-2c3.5-5,7.4-9.8,10.6-15C397,472.8,395.7,471.7,395,472.6L395,472.6z"/>
</g>
<path d="M329.3,276.2c-1.7-3.6-3.3-7.2-5-10.8c-1.3-3.1-2.9-6.2-4.6-9.2c-1.7-2.7-4.1-4-7-5.2c-2.6-1.1-5-2.3-6.6-4.7
	c-3.1-4.4-3.6-10.2-3.7-15.4c-0.1-4.4-0.5-11.2,3.7-13.9c1.5-0.8,3.1-1.1,4.8-1h5.9H328l23.2-0.1l46.2-0.2l92.9-0.3l92.6-0.3
	L606,215h11.6c3.2,0,7.4-0.7,10.3,1.1c4.2,2.6,3.8,9.2,3.2,13.4c-0.5,3.4-1.3,6.8-1.9,10.1c-0.5,2.6-0.6,7.2-3.5,8.4
	c-2.6,1.1-5.6,0.5-8.3,1.4c-2.4,0.9-4.6,2.2-6.5,4c-4.1,3.8-6.8,8.9-9.3,13.8c-6.8,13.3-13,26.9-19.5,40.5
	c-3.2,6.8-6.5,13.5-9.8,20.2c-2.9,5.8-5.8,11.7-9.4,17.2c-5.8,8.7-13.8,16-23.5,19.8c-12.1,4.8-25.5,3.9-38.3,3.6
	c-7.5-0.2-15-0.5-22.5-0.5s-15.3,0.3-23,0.5c-14.5,0.5-29.1,1.2-43.6,0.5c-5.4-0.3-10.7-0.9-15.9-2c-5.9-1.2-12-2.5-17.7-4.8
	c-4.2-1.7-7.8-4.3-10.8-7.7c-3.1-3.9-5.9-8-8.1-12.4c-4.8-8.5-9-17.3-13.3-26c-2.9-5.8-5.8-11.6-8.8-17.4l-0.5,2.1
	c2.5-1.4,5-3,7.4-4.6c3.8-2.6,7.9-5.6,10.3-9.5c2-3.2,2.3-8.6,0.5-11.9c-2.7-5.2-9.5-2.9-13.8-1.5c-3.3,1.1-6.7,2.3-10.1,3.2
	c-1.8,0.4-1,3.1,0.7,2.7s3.7-1.1,5.6-1.7c3-0.9,5.9-2.1,9-2.8c1.8-0.4,4.2-0.7,5.6,0.8c1.1,1.2,1.1,3.2,1.1,4.7
	c0.1,1.7-0.3,3.5-1.1,5c-2.1,3.5-5.8,6-9.1,8.3c-2.4,1.7-5,3.3-7.6,4.7c-0.7,0.4-0.9,1.3-0.5,2.1c5.6,10.8,10.9,21.8,16.4,32.7
	c2.1,4.2,4.3,8.3,6.6,12.4c2.4,4.5,5.3,8.7,8.7,12.5c3.2,3.3,7.2,5.9,11.5,7.5c5.9,2.1,12,3.7,18.2,4.8c12.6,2.5,25.6,2.4,38.4,2.2
	c15.7-0.3,31.4-1.3,47.2-1.2c7.7,0.1,15.5,0.4,23.2,0.5c7.3,0.1,14.8,0.3,22.1-0.6c10.7-1.2,20.8-5.8,28.8-13
	c9.2-8.4,14.6-19.6,20.1-30.6c6.9-13.9,13.4-28,20.1-42c3.2-6.7,6.4-13.5,10-20.1c2.6-4.8,5.8-10.1,11-12.6c2.7-1.3,5.5-1,8.4-1.6
	c2.7-0.5,4.9-2.6,5.6-5.3c0.9-3.5,1.6-7,2.1-10.6c0.7-2.9,1.1-5.9,1.3-8.9c0.2-4.7-0.6-10.1-4.9-12.8c-2.9-1.8-6.5-1.6-9.7-1.5
	h-11.9l-95.5,0.3l-95.6,0.3l-95.9,0.3c-3.8,0-7.7-0.2-11.5,0.1c-2.6,0.1-5.1,1.3-6.8,3.4c-3.2,4.1-3,10-2.8,15
	c0.2,5.3,0.9,11,3.8,15.6c1.4,2.3,3.4,4.2,5.9,5.4c3,1.5,6.2,2.2,8.1,5.1c1.8,2.9,3.3,6,4.7,9.1c1.8,3.5,3.6,7,5.5,10.5
	c0.6,1.2,2.3,0.1,1.8-1L329.3,276.2z"/>
<path d="M164.6,185.1c26.5,1.3,45.5,23.3,62.8,40.8c5.6,5.7,11.3,11.3,16.9,17c0.6,0.5,1.6,0.4,2.1-0.2c0.5-0.6,0.5-1.4,0-1.9
	c-9.9-10.2-19.8-20.4-30-30.4c-9.3-9-19.4-17.6-31.5-22.7c-6.4-2.8-13.3-4.3-20.2-4.6C163.4,183.2,163.4,185,164.6,185.1
	L164.6,185.1z"/>
<path d="M200.1,284.8c6.4,6.7,14.5,11.7,22.7,15.9s17.3,7.4,26.7,5.9c8.3-1.4,15.5-6.4,21.8-11.8c6.8-6.1,13.3-12.5,19.4-19.2
	c3.6-3.8,7-7.8,10.2-12c1.6-2.1,3.1-4.3,4.6-6.5s3.1-4.4,2.7-7.1c-0.2-1.6-2.6-1.8-2.6,0c0,2.2-1.7,4.2-2.8,6
	c-1.1,1.8-2.5,3.7-3.8,5.5c-2.7,3.6-5.6,7-8.6,10.3c-5.9,6.4-12,12.5-18.4,18.4c-5.8,5.3-12.2,10.5-19.9,12.7
	c-8.6,2.5-17.4,0.3-25.3-3.4c-4.5-2.1-8.8-4.5-13.1-7.1c-4.3-2.5-8.4-5.6-12-9c-0.4-0.4-1.1-0.4-1.5,0S199.7,284.4,200.1,284.8
	L200.1,284.8z"/>
<path d="M239.3,253c8.5-9.7,16.9-19.5,25.4-29.2c4.2-4.8,8.4-9.6,12.7-14.3c3.9-4.5,8-8.8,12.4-12.9c3.8-3.3,11.1-9.8,16.3-5.3
	c0.6,0.5,1.5,0.5,2,0c0.1-0.1,0.1-0.2,0.2-0.3c1.2-2.7,2.6-5.6,5.3-7.2c2.1-1.2,5-1.2,6.5,0.8c1,1.3,3.2-0.4,2.2-1.7
	c-2.2-2.7-6-3.6-9.1-2.1c-3.7,1.5-5.7,5.3-7.3,8.8l2.2-0.3c-4.6-4.1-10.8-1.9-15.2,1.3c-5,3.8-9.5,8-13.6,12.7
	c-9,10-17.8,20.2-26.4,30.5c-5,5.9-9.9,11.8-14.7,17.7C237.3,252.6,238.5,253.9,239.3,253L239.3,253z"/>
<path d="M315,191.7c5.5-5.4,12.2-11.6,20.6-9.8c1.8,0.4,3.5,1.1,5.1,2.1c0.8,0.5,1.5,1.1,2.2,1.8c0.7,0.6,1.4,1.3,1.8,2.1
	c0.8,2.7-10.5,2.6-11.9,2.5c-0.8,0-1.4,0.6-1.4,1.4c0,0.1,0,0.2,0,0.3c0.8,3.1-2,5.7-3.8,7.8c-0.4,0.5-0.4,1.3,0.1,1.7
	s1.2,0.4,1.6,0c2.9-2.6,5.7-6.1,4.7-10.3l-1.3,1.7c2.3,0.2,4.7,0.2,7-0.1c2-0.1,4-0.7,5.8-1.6c1.5-0.7,2.3-2.4,2-4.1
	c-0.5-1.7-2.1-3.2-3.5-4.3c-5.8-4.7-13.9-5.2-20.3-1.4c-3.9,2.3-7,5.6-10,8.9C312.9,191.3,314.2,192.6,315,191.7L315,191.7z"/>
<path d="M330.4,181.8c4.8-3.2,10.2-5.5,15.9-6.6c2.7-0.5,5.9-0.8,8.6-0.1s4.2,3.1,5.6,5.2c1,1.5,3.4,0.1,2.4-1.4
	c-1.5-2.4-3.3-5-6-6.1c-3-1.3-6.5-0.9-9.6-0.4c-6.5,1.1-12.5,4.1-17.7,7.9C328.7,181,329.5,182.5,330.4,181.8L330.4,181.8z"/>
<path d="M353.1,185.7c1.8,1.7,3.5,3.6,5.1,5.6c0.4,0.4,1.1,0.4,1.5,0s0.4-1.1,0-1.5c-1.6-1.9-3.4-3.7-5.3-5.4
	c-0.4-0.3-0.9-0.3-1.3,0C352.7,184.7,352.7,185.3,353.1,185.7L353.1,185.7z"/>
<path d="M353.5,196.3l0.3,0.1l0.1,0.1c0.1,0.1-0.2-0.2,0,0l0.2,0.2l0.1,0.1c0.1,0.1-0.1-0.1,0-0.1s0.2,0.4,0.3,0.5
	c0,0-0.1-0.2,0-0.1s0,0.1,0,0.1c0,0.1,0.1,0.2,0.1,0.3v0.1v-0.1c0,0.2,0,0.4,0,0.6c0,0,0,0.2,0,0s0,0,0,0c0,0.2-0.1,0.4-0.1,0.5
	c0.1-0.3,0.1-0.1,0-0.1c0,0,0,0.1-0.1,0.1c-0.1,0.1-0.1,0.2-0.2,0.3c-0.1,0.2-0.2,0.5-0.1,0.8s0.2,0.5,0.5,0.6
	c0.5,0.3,1.1,0.1,1.4-0.4c1.1-1.8,0.6-4.1-1.1-5.3c-0.1-0.1-0.2-0.1-0.3-0.2c-0.2-0.1-0.5-0.1-0.7-0.1c-0.5,0.1-0.8,0.7-0.6,1.2
	C353.2,196,353.3,196.2,353.5,196.3L353.5,196.3z"/>
<path d="M313.3,190.2c0.4,1.9,1.1,3.8,2.1,5.5c0.9,1.8,1.9,3.4,3.1,5.1c2.3,3.3,5,6.2,8.2,8.6c1.3,0.9,2.8-1.1,1.7-2.1
	c-2.9-2.4-5.5-5.1-7.8-8c-1.1-1.5-2.1-3-3-4.6c-0.9-1.7-1.6-3.5-2.6-5.1c-0.3-0.4-0.8-0.6-1.3-0.3
	C313.4,189.3,313.2,189.7,313.3,190.2L313.3,190.2z"/>
<g>
	<path class="st1" d="M337,252.7c33.8,0.1,67.7,0.1,101.5,0.2l101,0.5c19,0.1,38,0.1,56.9-0.3c0.8-0.1,1.3-0.7,1.3-1.5
		c-0.1-0.7-0.6-1.2-1.3-1.3c-33.8-0.7-67.7-0.2-101.5-0.1c-33.7,0.2-67.3,0.3-101,0.4l-57,0.1c-0.5,0-0.9,0.4-0.9,0.9
		S336.5,252.7,337,252.7L337,252.7L337,252.7z"/>
	<path class="st1" d="M397.9,287.1l6.7,32.4c0.5,2.4,1.1,5,2.5,6.4c0.3,0.3,0.7,0.6,1.1,0.4c0.6-0.3,0.7-1.6,0.6-2.6
		c-1-13.8-3.8-27.4-8.4-40.5c-1.2,0.8-1.9,2.1-1.9,3.5"/>
	<path class="st1" d="M397,287.3c1.1,6.3,2.3,12.6,3.6,18.9l1.8,9.2c0.6,2.9,0.9,5.9,2,8.6c0.7,1.6,2.5,4.7,4.6,3.2
		c2-1.4,1-5.2,0.8-7.2c-0.5-6-1.4-11.9-2.6-17.8c-1.4-6.6-3.2-13.2-5.5-19.5c-0.2-0.8-1-1.2-1.8-1c-0.1,0-0.2,0.1-0.3,0.1
		c-1.6,1-2.5,2.8-2.5,4.7c-0.1,1.5,2.5,1.9,2.7,0.4c0-1,0.5-2,1.3-2.6l-2.1-0.8c3.5,10.1,6,20.6,7.4,31.2c0.3,2.7,0.6,5.3,0.8,8
		c0.1,0.6,0.1,1.2,0.1,1.8c0,0.1-0.1,0.5-0.1,0.6c0.2,0.3,0.7-0.1,0.6-0.4s-0.7-1-0.8-1.3c-0.2-0.5-0.4-1.1-0.6-1.7
		c-1.5-5.3-2.4-10.7-3.5-16.1c-1.3-6.3-2.7-12.5-4.2-18.8C398.5,285.7,396.7,286.2,397,287.3L397,287.3z"/>
	<path class="st1" d="M425.3,287.1l6.7,32.4c0.5,2.4,1.1,5,2.5,6.4c0.3,0.3,0.8,0.6,1.1,0.4c0.6-0.3,0.7-1.6,0.6-2.6
		c-1-13.8-3.8-27.4-8.3-40.5c-1.2,0.8-1.9,2.1-1.9,3.5"/>
	<path class="st1" d="M424.4,287.3c1.1,6.3,2.3,12.6,3.6,18.9l1.8,9.2c0.6,2.9,0.9,5.9,2,8.6c0.7,1.6,2.5,4.7,4.6,3.2
		c2-1.4,1-5.2,0.8-7.2c-0.6-6-1.4-11.9-2.7-17.8c-1.4-6.6-3.2-13.2-5.5-19.5c-0.2-0.8-1-1.2-1.8-1c-0.1,0-0.2,0.1-0.3,0.1
		c-1.6,1-2.5,2.8-2.5,4.7c-0.1,1.5,2.5,1.9,2.7,0.4c0-1,0.5-2,1.3-2.6l-2.1-0.8c3.5,10.1,6,20.6,7.4,31.2c0.3,2.7,0.6,5.3,0.8,8
		c0.1,0.6,0.1,1.2,0.1,1.8c0,0.2-0.1,0.4-0.1,0.6c0.2,0.3,0.7-0.1,0.6-0.4s-0.7-1-0.8-1.3c-0.2-0.5-0.4-1.1-0.6-1.7
		c-1.5-5.3-2.4-10.7-3.5-16.1c-1.4-6.3-2.7-12.5-4.2-18.8C425.9,285.7,424.1,286.2,424.4,287.3L424.4,287.3z"/>
	<path class="st1" d="M452.6,287.1l6.6,32.4c0.5,2.4,1.1,5,2.5,6.4c0.3,0.3,0.7,0.6,1.1,0.4c0.6-0.3,0.7-1.6,0.6-2.6
		c-1-13.8-3.8-27.4-8.3-40.5c-1.2,0.8-1.9,2.1-1.9,3.5"/>
	<path class="st1" d="M451.8,287.3c1.1,6.3,2.3,12.6,3.6,18.9l1.8,9.2c0.4,2.9,1.1,5.8,2,8.6c0.7,1.6,2.5,4.7,4.6,3.2
		c2-1.4,1-5.2,0.8-7.2c-0.5-6-1.4-11.9-2.6-17.8c-1.4-6.6-3.2-13.2-5.5-19.5c-0.2-0.8-1-1.2-1.8-1c-0.1,0-0.2,0.1-0.3,0.1
		c-1.6,1-2.5,2.8-2.5,4.7c-0.1,1.5,2.5,1.9,2.7,0.4c0-1,0.5-2,1.3-2.6l-2.1-0.8c3.5,10.1,6,20.6,7.4,31.2c0.3,2.7,0.6,5.3,0.8,8
		c0.1,0.6,0.1,1.2,0.1,1.8c0,0.1-0.1,0.5-0.1,0.6c0.2,0.3,0.7-0.1,0.6-0.4s-0.7-1-0.8-1.3c-0.2-0.6-0.4-1.1-0.5-1.7
		c-1.5-5.3-2.4-10.7-3.5-16.1c-1.3-6.3-2.7-12.5-4.2-18.8C453.3,285.7,451.6,286.2,451.8,287.3L451.8,287.3z"/>
	<path class="st1" d="M480,287.1l6.7,32.4c0.5,2.4,1.1,5,2.5,6.4c0.3,0.3,0.8,0.6,1.1,0.4c0.6-0.3,0.7-1.6,0.6-2.6
		c-1-13.8-3.8-27.4-8.3-40.5c-1.2,0.8-1.9,2.1-1.9,3.5"/>
	<path class="st1" d="M479.1,287.3c1.1,6.3,2.3,12.6,3.6,18.9l1.8,9.2c0.6,2.9,0.9,5.9,2,8.6c0.7,1.6,2.5,4.7,4.6,3.2
		c2-1.4,1-5.2,0.8-7.2c-0.6-6-1.4-11.9-2.7-17.8c-1.4-6.6-3.2-13.2-5.5-19.5c-0.2-0.8-1-1.2-1.8-1c-0.1,0-0.2,0.1-0.3,0.1
		c-1.6,1.1-2.5,2.8-2.5,4.7c-0.1,1.5,2.5,1.9,2.7,0.4c0-1,0.5-2,1.3-2.6l-2.1-0.8c3.5,10.1,6,20.6,7.4,31.2c0.3,2.7,0.6,5.3,0.8,8
		c0.1,0.6,0.1,1.2,0.1,1.8c0,0.1-0.1,0.5,0,0.6c0.2,0.3,0.7-0.1,0.6-0.4c-0.2-0.5-0.5-0.9-0.8-1.3c-0.2-0.5-0.4-1.1-0.6-1.7
		c-1.5-5.3-2.4-10.7-3.5-16.1c-1.4-6.3-2.7-12.5-4.2-18.8C480.7,285.7,479,286.2,479.1,287.3L479.1,287.3z"/>
	<path class="st1" d="M507.4,287.1l6.7,32.4c0.5,2.4,1.1,5,2.5,6.4c0.3,0.3,0.8,0.6,1.1,0.4c0.6-0.3,0.7-1.6,0.6-2.6
		c-1-13.8-3.8-27.4-8.3-40.5c-1.2,0.7-1.9,2.1-1.9,3.5"/>
	<path class="st1" d="M506.5,287.3c1.1,6.3,2.3,12.6,3.6,18.9l1.8,9.2c0.6,2.9,0.9,5.9,2,8.6c0.7,1.6,2.5,4.7,4.6,3.2
		c2-1.4,1-5.2,0.8-7.2c-0.6-6-1.4-11.9-2.7-17.8c-1.4-6.6-3.2-13.2-5.4-19.5c-0.2-0.8-1-1.2-1.8-1c-0.1,0-0.2,0.1-0.3,0.1
		c-1.6,1-2.5,2.8-2.5,4.7c-0.1,1.5,2.5,1.9,2.7,0.4c0-1,0.5-2,1.3-2.6l-2.1-0.8c3.5,10.1,6,20.6,7.4,31.2c0.3,2.7,0.6,5.3,0.8,8
		c0.1,0.6,0.1,1.2,0.1,1.8c0,0.1-0.1,0.5-0.1,0.6c0.2,0.3,0.7-0.1,0.6-0.4s-0.7-1-0.8-1.3c-0.2-0.5-0.4-1.1-0.6-1.7
		c-1.5-5.3-2.4-10.7-3.5-16.1c-1.3-6.3-2.7-12.5-4.2-18.8C508.1,285.7,506.4,286.2,506.5,287.3L506.5,287.3z"/>
	<path class="st1" d="M379.6,207.4c-5.6-17.9-10.5-35.9-14.7-54.2c-0.9-3.9-2.3-8.3-1.5-12.4c0.7-3.6,3.5-5.9,6.8-7.3
		c4-1.5,8.1-2.5,12.3-2.9c4.5-0.6,9.1-0.8,13.7-1c9.5-0.4,19-0.7,28.6-0.7c7.9,0,16.4-0.6,24.2,1.6c3.6,1,6.8,2.9,9.3,5.6
		c2.4,2.8,4.3,6,5.5,9.4c3.3,8.4,6,17.1,9,25.6c6.3,18.1,12.6,36.1,18.9,54.2c0.8,2.2,1.5,4.4,2.3,6.6l0.9-2.2
		c-1.9,1.3-2.6,3.7-1.7,5.8s3.4,3.2,5.5,2.3c2.2-0.7,3.5-3.1,2.9-5.4c-0.8-2.4-3.3-3.8-5.7-3.2c-1,0.4-1.6,1.5-1.2,2.6
		c0.1,0.4,0.4,0.7,0.7,1c0.8,0.6-0.1,2.5-1,2.5l1.9,1.4c-0.1-0.4-0.2-0.7-0.1-1.1c0.1-0.2,0.1-0.4,0.2-0.6l-0.3,0.1
		c-0.1-0.3-0.1-0.6,0.1-0.9l3.2,0.9l-0.6-2c-0.7-2.4-4.3-1.4-3.7,1l0.6,2c0.3,1,1.4,1.6,2.4,1.3c0.3-0.1,0.6-0.2,0.8-0.5
		c2.3-2,0.1-5.7-2.6-5.7c-3.3,0-4.3,3.9-3.6,6.5c0.2,0.8,1,1.4,1.9,1.4c5,0.1,6.8-6.9,2.9-9.6L497,233c0.8-0.2,1.5,0.9,0.5,1.3
		c-0.4,0.1-0.7-0.1-0.9-0.4c-0.1-0.3,0-0.6,0.2-0.7c0.7-0.5,1.1-1.3,0.9-2.1c-6.6-18.8-13.2-37.5-19.8-56.3
		c-3.2-9.1-6.3-18.3-9.6-27.3c-2.7-7.4-6.3-14.8-13.7-18.4s-15.7-3.6-23.6-3.6c-9.9,0-19.9,0.2-29.8,0.5c-9.5,0.4-19.3,0.6-28.5,3.2
		c-3.5,1-7.2,2.5-9.7,5.2c-2.9,3.1-3.6,7.3-3.1,11.4c0.8,4.5,1.8,9,3.1,13.4c1.2,4.7,2.5,9.4,3.8,14.1c2.6,9.3,5.4,18.6,8.4,27.8
		c0.8,2.3,1.5,4.7,2.3,7C378,209.3,380,208.8,379.6,207.4L379.6,207.4z"/>
</g>
<path d="M510.5,131.5c8.5,2.3,17.3,3.8,26.1,4.6c3.3,0.3,7.1,0,8.6-3.6c0.5-1.6,0.9-3.3,1.1-5c0.4-1.5,0.9-2.9,1.5-4.3
	c2.8-5.9,7.9-10.4,13-14.3c5.5-4.2,11.3-8,16.5-12.7c11.3-10,20.2-23.3,22.7-38.4c1.3-7.7,0.9-15.6-1.3-23.1
	c-2.1-7-6-13.3-11.1-18.5C577.2,6,562.8,0.7,548.4,0c-8.6-0.3-17.1,0.5-25.4,2.6c-4.2,1-8.4,2.2-12.5,3.7c-3.2,1.1-6.3,2.5-9.1,4.2
	c-5.3,3.3-10.1,8.5-9.2,15.2c0.5,4,3,7.7,5.1,11.1c2.2,3.7,4.5,7.3,6.9,10.8s4.9,6.9,7.5,10.1c2.4,3,4.8,6.5,8.1,8.5s7.4,1.7,11,0.2
	s6.7-4.1,10.3-5.7c2.8-1.2,6.2-1.6,8.8,0.4c3.2,2.5,0.8,6.3-1.3,8.7c-4.7,5.4-11.1,8.9-16.9,12.9c-3,2-5.8,4.4-8.4,7
	c-2.5,2.8-4.7,5.8-6.5,9.1c-1.9,3.4-3.5,6.9-4.9,10.5c-1.5,3.6-2.9,7.3-4,11.1s-1.4,7.4,0.2,11.1c0.7,1.6,3,0.2,2.3-1.4
	c-1.5-3.5,0-8,1.2-11.4c1.2-3.4,2.5-6.9,3.9-10.3c2.8-6.7,6.3-13.4,11.8-18.4c5.1-4.7,11.3-7.9,16.8-12c2.8-2,5.3-4.3,7.5-7
	c2.1-2.7,3.8-6.1,2.3-9.5c-1.2-2.7-4.1-4.3-6.9-4.7c-3.5-0.5-6.8,0.8-9.7,2.5c-3.3,1.9-6.4,4.3-10.2,5c-3.8,0.7-6.6-1.4-8.9-4.1
	c-5.3-6.2-10.2-12.9-14.6-19.8c-2.2-3.4-4.3-6.8-6.2-10.4c-1.5-2.9-2.4-6-1.2-9.1c2.2-5.5,8.6-8.7,13.8-10.6
	c7.7-2.9,15.7-4.9,23.9-6.1c14.6-1.9,29.9,0,42.6,7.9c5.6,3.5,10.5,8.1,14.1,13.6c3.9,6.1,6.2,13.2,6.6,20.5
	c0.9,14.9-5.2,29.1-14.8,40.3c-4.7,5.3-9.9,10.1-15.7,14.2c-5.2,3.8-10.5,7.5-15,12.1c-4.3,4.4-7.7,9.7-8.7,15.9
	c-0.2,1.5-0.3,3.5-1.9,4.3s-3.3,0.5-4.8,0.4c-4.4-0.3-8.7-0.8-13-1.5c-4.1-0.7-8.2-1.5-12.2-2.5c-0.6-0.1-1.2,0.3-1.3,0.9
	C509.8,130.8,510.1,131.3,510.5,131.5L510.5,131.5z"/>
<path d="M540.4,148.8c-4.6-0.7-9.1-1.2-13.8-1.4c-4.3-0.3-8.6-0.2-12.9,0.3c-3.6,0.4-6.9,2.2-9,5.1c-1.9,2.7-2.4,6.2-2.5,9.4
	c0,1.7,0,3.3,0.2,5c0,1.9,0.4,3.8,1.1,5.5c0.9,1.6,2.3,2.7,4.1,3.3c2,0.8,4.1,1.4,6.2,1.8c4.2,0.7,8.5,0.9,12.8,0.6
	c4.1-0.2,8.4-0.4,11.9-2.8c3.3-2.3,5.7-5.7,6.7-9.6c1.3-4.7,0.4-9.7-1.2-14.2c-0.7-1.8-3.5-1.1-2.9,0.8c2.1,6.4,2,14.3-3.2,19.2
	c-2.6,2.4-5.9,2.9-9.3,3.2c-3.8,0.4-7.5,0.4-11.3,0.1c-1.8-0.2-3.6-0.5-5.3-0.9c-1.8-0.3-3.5-1-5-2c-1.2-0.9-1.3-2.6-1.4-4
	c-0.2-1.5-0.3-3.1-0.3-4.6c-0.2-2.9,0.3-5.7,1.5-8.4c1.4-2.6,4-4.4,6.9-4.9c4.1-0.9,8.5-0.8,12.7-0.7c4.6,0.1,9.2,0.3,13.8,0.8
	C541.1,150.7,541.4,149,540.4,148.8L540.4,148.8z"/>
<g>
	<path class="st1" d="M293.1,20c-8.1,3-15,8.5-19.7,15.8c-5.3,8.1-7.7,17.8-7.7,27.4c0,5.1,0.6,10.1,1.7,15.1
		c0.9,4.5,2.7,8.8,5.1,12.6c4.6,7,13.8,12.2,22.2,9c7.6-2.9,11.6-13.5,5.7-19.9c-0.6-0.6-1.5-0.6-2.1,0c-6.4,6.2-5.5,16-3.1,23.8
		c2.5,8,6.5,16.3,12.7,22.1c3.4,3.3,7.7,5.4,12.4,6c0.8,0,1.5-0.7,1.5-1.5s-0.7-1.5-1.5-1.5c-7.7-1-13.2-7.3-16.9-13.7
		c-3.8-6.5-7-14.3-7.2-22c-0.1-4.2,1-8.3,4-11.3h-2c4.4,4.7,1.2,12.7-4.2,15c-7.6,3.2-15.8-1.9-19.8-8.2c-4.5-7.2-6-16.4-6.2-24.8
		c-0.3-8.8,1.8-17.6,6.2-25.3c4.3-7.6,11.2-13.4,19.3-16.5C295.1,21.8,294.5,19.5,293.1,20L293.1,20z"/>
	<path class="st1" d="M355.2,53.9c6.2,14,11.7,28.4,16.6,42.9c0.5,1.3,2.6,0.8,2.1-0.6c-5-14.7-10.7-29.1-17.1-43.3
		C356.3,51.9,354.7,52.8,355.2,53.9z"/>
	<path class="st1" d="M414.9,43l-0.1,47.7c0,0.6,0.5,1,1,1c0.6,0,1-0.5,1-1V43c-0.1-0.5-0.5-0.9-1-0.8C415.3,42.2,415,42.5,414.9,43
		L414.9,43z"/>
	<path class="st1" d="M472.6,47.7l-12.2,40.7c-0.1,0.6,0.3,1.2,0.9,1.3c0.5,0.1,1-0.2,1.2-0.7l12-40.8c0-0.6-0.4-1-1-1
		C473.2,47.2,472.8,47.4,472.6,47.7L472.6,47.7z"/>
	<path class="st1" d="M480.6,110.1c3.3-1.8,6.8-3,10.5-3.8c0.6-0.2,0.9-0.8,0.8-1.4c-0.2-0.6-0.8-0.9-1.4-0.8c-3.8,0.8-7.6,2.1-11,4
		C478.3,108.9,479.4,110.8,480.6,110.1L480.6,110.1z"/>
	<path class="st1" d="M656.1,46.5c6.5,2.6,10.5,8.9,12.6,15.3c1.9,5.8,2.6,12,2,18.1c-1.1,12.2-6.5,23.6-15.1,32.2
		c-4.3,4.3-9.3,7.7-14.9,10.1c-2.8,1.1-6.2,2.3-9.2,1.6c-0.7-0.1-1.4-0.4-2-0.9c-0.3-0.5-0.4-1.2-0.3-1.8c0-1.4,0.5-2.9,1.3-4.1
		c1.6-2.6,4.3-4.3,7.3-4.8c3.1-0.2,6.2,0.8,8.5,2.9c5.8,5,6.7,12.8,5.3,20c-1.4,7.2-4.6,14.6-9.4,20.1c-4.6,5.3-11.4,8.9-18.6,7.9
		c-1.7-0.2-3.3-0.8-4.8-1.5l0.6,2.3c2-3.2,4.5-6.6,8-8.2c2.8-1.2,6.7-1.2,8.8,1.3c2.2,2.6,1.4,6.6,0,9.4c-1.7,3.4-4.1,6.3-7,8.7
		c-3.3,2.8-7.2,4.9-11.3,6.3c-2,0.6-1.2,3.7,0.9,3.1c8.5-2.5,17.1-8.7,20.8-17.1c1.7-3.9,2.3-8.7-0.4-12.3
		c-2.6-3.4-7.2-4.4-11.3-3.3c-5.2,1.4-8.8,5.9-11.5,10.3c-0.5,0.8-0.2,1.8,0.6,2.3c7.2,3.7,16.2,2.2,22.6-2.5
		c6.8-5,10.9-12.6,13.5-20.4c2.7-8,3.8-17.6-1.2-25c-4.1-6-11.9-9.9-18.8-6.2c-3.1,1.7-5.5,4.5-6.5,7.9c-0.5,1.7-0.5,3.5,0,5.2
		c0.5,1.6,2.6,2.5,4.2,2.9c3.6,0.8,7.4-0.3,10.7-1.7c3.2-1.3,6.2-2.9,9-4.9c11.4-8,19.2-20.1,22-33.8c1.4-6.7,1.3-13.6-0.1-20.3
		c-1.6-7.1-4.9-14.3-10.8-18.8c-1.4-1.1-3-1.9-4.7-2.6C655.5,44.1,655,46,656.1,46.5L656.1,46.5z"/>
</g>
<path d="M138.2,724.4"/>
<path d="M161.5,789.2"/>
<path class="st0" d="M75.3,665.2"/>
<path d="M71.8,726.3"/>
<path d="M69.8,708.9"/>
<path class="st0" d="M101.5,636.2c-4.3,3.7-8.7,7.3-13,11"/>
</svg>
