<?xml version="1.0" encoding="utf-8"?>
<!-- Generator: Adobe Illustrator 24.1.2, SVG Export Plug-In . SVG Version: 6.00 Build 0)  -->
<svg version="1.1" id="Layer_1" xmlns="http://www.w3.org/2000/svg" xmlns:xlink="http://www.w3.org/1999/xlink" x="0px" y="0px"
	 viewBox="0 0 640 640" style="enable-background:new 0 0 640 640;" xml:space="preserve">
<style type="text/css">
	.st0{fill:#FFC500;}
	.st1{fill:#FF9F1E;}
	.st2{fill:#00305F;}
	.st3{fill:#FFFFFF;}
	.st4{fill:#FFE059;}
</style>
<g id="Layer_3">
	<circle class="st0" cx="320.3" cy="319.9" r="320"/>
	<path class="st1" d="M343,594.6c-176.8,0-320-143.3-320-320c0-41.1,7.8-81.7,23.2-119.8C16.1,204.6,0.2,261.7,0.3,319.9
		c0,176.7,143.3,320,320,320c134.4,0,249.4-82.8,296.8-200.2C561.1,532.6,459.3,594.6,343,594.6z"/>
	
		<ellipse transform="matrix(4.361939e-02 -0.999 0.999 4.361939e-02 -71.4928 431.2765)" class="st2" cx="189.5" cy="253" rx="49.5" ry="31.4"/>
	<circle class="st3" cx="204.9" cy="232.7" r="8.7"/>
	
		<ellipse transform="matrix(0.999 -4.361939e-02 4.361939e-02 0.999 -10.5882 19.9285)" class="st2" cx="451.4" cy="252.6" rx="31.4" ry="49.5"/>
	<circle class="st3" cx="461.9" cy="232.7" r="8.7"/>
	<path class="st4" d="M320.3-0.1C251.8-0.2,185,21.8,130,62.7c75.5-29.2,158.6-32.6,236.3-9.9c-0.7,0.8-1.2,1.7-1.7,2.7
		c-9.5,17.7,9.9,46.5,43.1,64.3s68,18,77.5,0.4c0.9-1.7,1.6-3.6,1.9-5.5c86.1,66.7,141.8,171.1,142.3,288.4
		c7.3-27.1,11-55.1,10.9-83.2C640.3,143.2,497-0.1,320.3-0.1z"/>
	
		<ellipse transform="matrix(0.1908 -0.9816 0.9816 0.1908 244.7747 595.7974)" class="st4" cx="483.8" cy="149.4" rx="16.1" ry="27.5"/>
	<ellipse transform="matrix(0.5 -0.866 0.866 0.5 76.1864 452.383)" class="st4" cx="429.9" cy="160.2" rx="9" ry="13"/>
	<path class="st2" d="M461.9,470.9c-4.6,0-9-2-12-5.6c-16.8-20-36.5-35.7-58.4-46.7c-21.9-10.9-46.3-16.9-70.9-16.9
		c-47.8,0-92.9,21.7-127.2,61.1c-5.7,6.5-15.6,7.2-22.1,1.5c-6.5-5.7-7.2-15.6-1.5-22.1c19.6-22.4,42.2-40,67.5-52.4
		c53.1-26.2,115.4-25.8,168.2,0.8c25.7,12.9,48.7,31.2,68.3,54.5c5.6,6.6,4.8,16.4-1.7,22C469.2,469.6,465.6,470.9,461.9,470.9z"/>
</g>
</svg>
